<svg width="442" height="235" viewBox="0 0 442 235" fill="none" xmlns="http://www.w3.org/2000/svg">
<path d="M327.49 121.567V86.884C327.49 71.3203 314.909 58.6607 299.446 58.6607C287.106 58.6607 276.602 66.7232 272.863 77.8898C275.688 83.3883 277.283 89.624 277.283 96.2271C277.283 103.731 275.127 110.744 271.404 116.661V121.567C269.027 122.9 267.419 125.454 267.419 128.386C267.419 132.695 270.89 136.189 275.172 136.189C279.453 136.189 282.924 132.695 282.924 128.386C282.924 125.454 281.317 122.902 278.941 121.568V86.884C278.941 75.5048 288.14 66.2468 299.446 66.2468C310.755 66.2468 319.953 75.5048 319.953 86.884V121.568C317.577 122.901 315.97 125.454 315.97 128.386C315.97 132.695 319.441 136.189 323.722 136.189C328.004 136.189 331.475 132.695 331.475 128.386C331.475 125.454 329.867 122.901 327.49 121.567Z" fill="white"/>
<path d="M274.871 96.227C274.871 91.0198 273.816 86.0586 271.911 81.5465V81.5433C266.209 68.0644 252.92 58.5879 237.474 58.5879H203.369C207.434 60.3264 211.052 62.9331 213.991 66.174H237.474C253.939 66.174 267.334 79.656 267.334 96.227C267.334 111.83 254.719 124.523 239.22 124.523H222.542C221.839 123.255 220.796 122.204 219.535 121.497V86.8142C219.535 79.8804 217.036 73.5204 212.897 68.6015C212.179 67.7456 211.41 66.9325 210.596 66.174C207.617 63.3731 204.033 61.2216 200.068 59.941C199.278 59.6802 198.473 59.4588 197.656 59.2766C195.673 58.8246 193.607 58.5879 191.491 58.5879C181.135 58.5879 172.073 64.2678 167.215 72.6935C162.358 64.2678 153.296 58.5886 142.941 58.5886C127.477 58.5886 114.896 71.2505 114.896 86.8142V121.497C112.52 122.83 110.912 125.384 110.912 128.316C110.912 132.625 114.383 136.119 118.665 136.119C122.947 136.119 126.418 132.625 126.418 128.316C126.418 125.384 124.81 122.83 122.434 121.497V86.8142C122.434 75.4337 131.633 66.1747 142.941 66.1747C154.238 66.1747 163.43 75.4167 163.447 86.783C163.446 86.7935 163.446 86.8038 163.446 86.8142V109.143C161.071 110.477 159.463 113.03 159.463 115.961C159.463 120.271 162.934 123.764 167.216 123.764C171.498 123.764 174.969 120.271 174.969 115.961C174.969 113.029 173.361 110.476 170.985 109.143V86.8142C170.985 86.8026 170.984 86.7911 170.984 86.7795C171.003 75.4162 180.196 66.174 191.491 66.174C193.637 66.174 195.712 66.5078 197.656 67.1267C198.868 67.5121 200.029 68.0066 201.132 68.6015C207.593 72.0788 211.998 78.9398 211.998 86.8142V121.497C209.622 122.83 208.014 125.384 208.014 128.316C208.014 132.625 211.485 136.119 215.767 136.119C218.68 136.119 221.217 134.5 222.541 132.109H239.22C253.393 132.109 265.664 123.74 271.404 111.654C273.626 106.978 274.871 101.747 274.871 96.227Z" fill="white"/>
<path d="M163.801 143.514V155.969H161.758V150.521H155.898V155.969H153.855V143.514H155.898V148.855H161.758V143.514H163.801Z" fill="white"/>
<path d="M168.534 143.514V155.969H166.491V143.514H168.534Z" fill="white"/>
<path d="M180.23 147.098C179.908 146.477 179.46 146.011 178.886 145.701C178.313 145.378 177.65 145.217 176.897 145.217C176.073 145.217 175.338 145.402 174.693 145.772C174.048 146.143 173.54 146.668 173.169 147.349C172.811 148.03 172.632 148.819 172.632 149.715C172.632 150.611 172.811 151.405 173.169 152.098C173.54 152.779 174.048 153.305 174.693 153.675C175.338 154.046 176.073 154.231 176.897 154.231C178.008 154.231 178.91 153.92 179.603 153.299C180.296 152.678 180.72 151.835 180.875 150.772H176.198V149.141H183.062V150.736C182.93 151.704 182.584 152.594 182.022 153.407C181.473 154.219 180.75 154.87 179.854 155.36C178.97 155.838 177.984 156.077 176.897 156.077C175.726 156.077 174.657 155.808 173.689 155.27C172.721 154.721 171.951 153.962 171.377 152.994C170.816 152.027 170.535 150.933 170.535 149.715C170.535 148.496 170.816 147.403 171.377 146.435C171.951 145.468 172.721 144.715 173.689 144.177C174.669 143.628 175.738 143.353 176.897 143.353C178.223 143.353 179.4 143.681 180.427 144.339C181.467 144.984 182.219 145.904 182.685 147.098H180.23Z" fill="white"/>
<path d="M195.023 143.514V155.969H192.98V150.521H187.12V155.969H185.077V143.514H187.12V148.855H192.98V143.514H195.023Z" fill="white"/>
<path d="M211.077 147.224C211.077 147.857 210.928 148.454 210.629 149.016C210.33 149.577 209.853 150.037 209.195 150.396C208.538 150.742 207.696 150.916 206.669 150.916H204.411V155.969H202.368V143.514H206.669C207.624 143.514 208.431 143.681 209.088 144.016C209.757 144.339 210.253 144.781 210.575 145.342C210.91 145.904 211.077 146.531 211.077 147.224ZM206.669 149.249C207.445 149.249 208.025 149.076 208.407 148.729C208.789 148.371 208.98 147.869 208.98 147.224C208.98 145.862 208.21 145.181 206.669 145.181H204.411V149.249H206.669Z" fill="white"/>
<path d="M215.069 145.163V148.819H219.37V150.485H215.069V154.303H219.907V155.969H213.026V143.496H219.907V145.163H215.069Z" fill="white"/>
<path d="M228.893 155.969L226.026 150.987H224.467V155.969H222.424V143.514H226.725C227.68 143.514 228.487 143.681 229.144 144.016C229.813 144.351 230.309 144.799 230.631 145.36C230.966 145.922 231.133 146.549 231.133 147.242C231.133 148.054 230.894 148.795 230.416 149.464C229.95 150.121 229.227 150.569 228.248 150.808L231.33 155.969H228.893ZM224.467 149.356H226.725C227.489 149.356 228.063 149.165 228.445 148.783C228.839 148.401 229.036 147.887 229.036 147.242C229.036 146.597 228.845 146.095 228.463 145.736C228.081 145.366 227.501 145.181 226.725 145.181H224.467V149.356Z" fill="white"/>
<path d="M241.076 143.514V145.181H235.79V148.855H239.911V150.521H235.79V155.969H233.747V143.514H241.076Z" fill="white"/>
<path d="M248.65 156.095C247.492 156.095 246.422 155.826 245.443 155.288C244.475 154.739 243.704 153.98 243.131 153.012C242.569 152.033 242.289 150.933 242.289 149.715C242.289 148.496 242.569 147.403 243.131 146.435C243.704 145.468 244.475 144.715 245.443 144.177C246.422 143.628 247.492 143.353 248.65 143.353C249.821 143.353 250.891 143.628 251.858 144.177C252.838 144.715 253.609 145.468 254.17 146.435C254.732 147.403 255.012 148.496 255.012 149.715C255.012 150.933 254.732 152.033 254.17 153.012C253.609 153.98 252.838 154.739 251.858 155.288C250.891 155.826 249.821 156.095 248.65 156.095ZM248.65 154.32C249.475 154.32 250.21 154.135 250.855 153.765C251.5 153.383 252.002 152.845 252.36 152.152C252.73 151.447 252.916 150.635 252.916 149.715C252.916 148.795 252.73 147.988 252.36 147.296C252.002 146.603 251.5 146.071 250.855 145.701C250.21 145.33 249.475 145.145 248.65 145.145C247.826 145.145 247.091 145.33 246.446 145.701C245.801 146.071 245.293 146.603 244.923 147.296C244.564 147.988 244.385 148.795 244.385 149.715C244.385 150.635 244.564 151.447 244.923 152.152C245.293 152.845 245.801 153.383 246.446 153.765C247.091 154.135 247.826 154.32 248.65 154.32Z" fill="white"/>
<path d="M263.492 155.969L260.625 150.987H259.066V155.969H257.023V143.514H261.324C262.28 143.514 263.086 143.681 263.743 144.016C264.412 144.351 264.908 144.799 265.23 145.36C265.565 145.922 265.732 146.549 265.732 147.242C265.732 148.054 265.493 148.795 265.015 149.464C264.549 150.121 263.827 150.569 262.847 150.808L265.929 155.969H263.492ZM259.066 149.356H261.324C262.088 149.356 262.662 149.165 263.044 148.783C263.438 148.401 263.636 147.887 263.636 147.242C263.636 146.597 263.444 146.095 263.062 145.736C262.68 145.366 262.1 145.181 261.324 145.181H259.066V149.356Z" fill="white"/>
<path d="M281.464 143.514V155.969H279.421V147.439L275.622 155.969H274.206L270.389 147.439V155.969H268.346V143.514H270.55L274.923 153.281L279.277 143.514H281.464Z" fill="white"/>
<path d="M291.658 153.424H286.443L285.547 155.969H283.414L287.877 143.496H290.242L294.704 155.969H292.554L291.658 153.424ZM291.084 151.758L289.059 145.969L287.016 151.758H291.084Z" fill="white"/>
<path d="M306.877 155.969H304.834L298.688 146.668V155.969H296.645V143.496H298.688L304.834 152.779V143.496H306.877V155.969Z" fill="white"/>
<path d="M308.879 149.715C308.879 148.496 309.16 147.403 309.722 146.435C310.295 145.468 311.066 144.715 312.033 144.177C313.013 143.628 314.082 143.353 315.241 143.353C316.567 143.353 317.744 143.681 318.772 144.339C319.811 144.984 320.564 145.904 321.03 147.098H318.574C318.252 146.441 317.804 145.951 317.23 145.629C316.657 145.306 315.994 145.145 315.241 145.145C314.417 145.145 313.682 145.33 313.037 145.701C312.392 146.071 311.884 146.603 311.514 147.296C311.155 147.988 310.976 148.795 310.976 149.715C310.976 150.635 311.155 151.441 311.514 152.134C311.884 152.827 312.392 153.365 313.037 153.747C313.682 154.117 314.417 154.303 315.241 154.303C315.994 154.303 316.657 154.141 317.23 153.819C317.804 153.496 318.252 153.006 318.574 152.349H321.03C320.564 153.544 319.811 154.464 318.772 155.109C317.744 155.754 316.567 156.077 315.241 156.077C314.07 156.077 313.001 155.808 312.033 155.27C311.066 154.721 310.295 153.962 309.722 152.994C309.16 152.027 308.879 150.933 308.879 149.715Z" fill="white"/>
<path d="M325.464 145.163V148.819H329.765V150.485H325.464V154.303H330.303V155.969H323.421V143.496H330.303V145.163H325.464Z" fill="white"/>
<path d="M223.773 166.946C223.773 165.728 224.053 164.635 224.615 163.667C225.188 162.699 225.959 161.947 226.927 161.409C227.906 160.859 228.976 160.585 230.135 160.585C231.461 160.585 232.637 160.913 233.665 161.57C234.704 162.215 235.457 163.135 235.923 164.33H233.468C233.145 163.673 232.697 163.183 232.124 162.86C231.55 162.538 230.887 162.377 230.135 162.377C229.31 162.377 228.575 162.562 227.93 162.932C227.285 163.303 226.777 163.834 226.407 164.527C226.049 165.22 225.869 166.026 225.869 166.946C225.869 167.866 226.049 168.673 226.407 169.366C226.777 170.059 227.285 170.596 227.93 170.979C228.575 171.349 229.31 171.534 230.135 171.534C230.887 171.534 231.55 171.373 232.124 171.05C232.697 170.728 233.145 170.238 233.468 169.581H235.923C235.457 170.776 234.704 171.695 233.665 172.341C232.637 172.986 231.461 173.308 230.135 173.308C228.964 173.308 227.894 173.04 226.927 172.502C225.959 171.952 225.188 171.194 224.615 170.226C224.053 169.258 223.773 168.165 223.773 166.946Z" fill="white"/>
<path d="M243.995 173.326C242.836 173.326 241.767 173.057 240.787 172.52C239.82 171.97 239.049 171.212 238.476 170.244C237.914 169.264 237.633 168.165 237.633 166.946C237.633 165.728 237.914 164.635 238.476 163.667C239.049 162.699 239.82 161.947 240.787 161.409C241.767 160.859 242.836 160.585 243.995 160.585C245.166 160.585 246.235 160.859 247.203 161.409C248.183 161.947 248.953 162.699 249.515 163.667C250.076 164.635 250.357 165.728 250.357 166.946C250.357 168.165 250.076 169.264 249.515 170.244C248.953 171.212 248.183 171.97 247.203 172.52C246.235 173.057 245.166 173.326 243.995 173.326ZM243.995 171.552C244.82 171.552 245.554 171.367 246.199 170.997C246.845 170.614 247.346 170.077 247.705 169.384C248.075 168.679 248.26 167.866 248.26 166.946C248.26 166.026 248.075 165.22 247.705 164.527C247.346 163.834 246.845 163.303 246.199 162.932C245.554 162.562 244.82 162.377 243.995 162.377C243.171 162.377 242.436 162.562 241.791 162.932C241.146 163.303 240.638 163.834 240.268 164.527C239.909 165.22 239.73 166.026 239.73 166.946C239.73 167.866 239.909 168.679 240.268 169.384C240.638 170.077 241.146 170.614 241.791 170.997C242.436 171.367 243.171 171.552 243.995 171.552Z" fill="white"/>
<path d="M265.486 160.746V173.201H263.443V164.67L259.643 173.201H258.228L254.41 164.67V173.201H252.367V160.746H254.572L258.944 170.513L263.299 160.746H265.486Z" fill="white"/>
<path d="M276.88 164.455C276.88 165.089 276.731 165.686 276.432 166.248C276.134 166.809 275.656 167.269 274.999 167.627C274.342 167.974 273.499 168.147 272.472 168.147H270.214V173.201H268.171V160.746H272.472C273.428 160.746 274.234 160.913 274.891 161.248C275.56 161.57 276.056 162.012 276.379 162.574C276.713 163.135 276.88 163.762 276.88 164.455ZM272.472 166.48C273.248 166.48 273.828 166.307 274.21 165.961C274.592 165.602 274.784 165.101 274.784 164.455C274.784 163.093 274.013 162.412 272.472 162.412H270.214V166.48H272.472Z" fill="white"/>
<path d="M280.854 160.746V168.685C280.854 169.629 281.099 170.339 281.589 170.817C282.09 171.295 282.783 171.534 283.667 171.534C284.563 171.534 285.256 171.295 285.746 170.817C286.248 170.339 286.499 169.629 286.499 168.685V160.746H288.542V168.649C288.542 169.664 288.321 170.525 287.879 171.23C287.437 171.934 286.845 172.46 286.105 172.807C285.364 173.153 284.546 173.326 283.649 173.326C282.753 173.326 281.935 173.153 281.194 172.807C280.466 172.46 279.886 171.934 279.456 171.23C279.026 170.525 278.811 169.664 278.811 168.649V160.746H280.854Z" fill="white"/>
<path d="M299.248 160.746V162.412H295.933V173.201H293.89V162.412H290.557V160.746H299.248Z" fill="white"/>
<path d="M303.36 160.746V173.201H301.317V160.746H303.36Z" fill="white"/>
<path d="M316.275 173.201H314.232L308.086 163.9V173.201H306.043V160.728H308.086L314.232 170.011V160.728H316.275V173.201Z" fill="white"/>
<path d="M327.972 164.33C327.65 163.709 327.202 163.243 326.628 162.932C326.055 162.61 325.392 162.448 324.639 162.448C323.815 162.448 323.08 162.633 322.435 163.004C321.79 163.374 321.282 163.9 320.912 164.581C320.553 165.262 320.374 166.05 320.374 166.946C320.374 167.842 320.553 168.637 320.912 169.33C321.282 170.011 321.79 170.537 322.435 170.907C323.08 171.277 323.815 171.462 324.639 171.462C325.75 171.462 326.652 171.152 327.345 170.531C328.038 169.909 328.462 169.067 328.618 168.004H323.94V166.373H330.804V167.968C330.672 168.936 330.326 169.826 329.764 170.638C329.215 171.451 328.492 172.102 327.596 172.592C326.712 173.069 325.726 173.308 324.639 173.308C323.468 173.308 322.399 173.04 321.431 172.502C320.464 171.952 319.693 171.194 319.12 170.226C318.558 169.258 318.277 168.165 318.277 166.946C318.277 165.728 318.558 164.635 319.12 163.667C319.693 162.699 320.464 161.947 321.431 161.409C322.411 160.859 323.48 160.585 324.639 160.585C325.965 160.585 327.142 160.913 328.17 161.57C329.209 162.215 329.962 163.135 330.428 164.33H327.972Z" fill="white"/>
<path d="M156.302 168.497C156.324 168.497 156.369 168.564 156.436 168.675C156.436 168.765 156.447 168.843 156.48 168.899C156.747 169.914 157.324 170.852 158.213 171.712C159.124 172.549 160.124 173.096 161.191 173.364C161.302 173.397 161.369 173.442 161.369 173.497C161.369 173.564 161.302 173.609 161.191 173.631C160.091 173.877 159.058 174.48 158.08 175.462C157.124 176.422 156.547 177.382 156.347 178.364C156.313 178.453 156.28 178.498 156.258 178.498C156.191 178.498 156.147 178.453 156.124 178.364C156.036 177.862 155.825 177.337 155.502 176.801C155.202 176.243 154.847 175.752 154.436 175.328C154.08 174.971 153.569 174.614 152.925 174.257C152.302 173.877 151.814 173.631 151.458 173.542C151.369 173.52 151.325 173.475 151.325 173.408C151.325 173.352 151.458 173.297 151.725 173.23C151.991 173.174 152.369 173.006 152.88 172.738C153.414 172.471 153.902 172.102 154.347 171.622C154.813 171.153 155.213 170.64 155.547 170.104C155.902 169.546 156.124 169.055 156.213 168.631C156.213 168.542 156.236 168.497 156.302 168.497Z" fill="white"/>
<path d="M149.677 176.845C149.699 176.845 149.744 176.912 149.81 177.023C149.81 177.112 149.821 177.191 149.855 177.246C150.121 178.262 150.699 179.2 151.588 180.059C152.499 180.896 153.499 181.443 154.566 181.711C154.677 181.745 154.743 181.789 154.743 181.845C154.743 181.912 154.677 181.957 154.566 181.979C153.466 182.225 152.432 182.827 151.455 183.81C150.499 184.77 149.921 185.73 149.721 186.712C149.688 186.801 149.655 186.846 149.633 186.846C149.566 186.846 149.521 186.801 149.499 186.712C149.41 186.21 149.199 185.685 148.877 185.149C148.577 184.591 148.222 184.1 147.81 183.676C147.455 183.319 146.944 182.961 146.299 182.604C145.677 182.225 145.188 181.979 144.833 181.89C144.744 181.867 144.7 181.823 144.7 181.756C144.7 181.7 144.833 181.644 145.099 181.577C145.366 181.521 145.744 181.354 146.255 181.086C146.788 180.818 147.277 180.45 147.722 179.97C148.188 179.501 148.588 178.988 148.922 178.452C149.277 177.894 149.499 177.403 149.588 176.978C149.588 176.889 149.61 176.845 149.677 176.845Z" fill="white"/>
<path d="M130.623 152.839C130.623 153.772 129.867 154.527 128.934 154.527C128 154.527 127.245 153.772 127.245 152.839C127.245 151.916 128 151.15 128.934 151.15C129.867 151.15 130.623 151.916 130.623 152.839ZM133.445 151.15C132.511 151.15 131.756 151.916 131.756 152.839C131.756 153.772 132.511 154.527 133.445 154.527C134.367 154.527 135.133 153.772 135.133 152.839C135.133 151.916 134.367 151.15 133.445 151.15ZM128.934 160.16C128 160.16 127.245 160.927 127.245 161.849C127.245 162.783 128 163.538 128.934 163.538C129.867 163.538 130.623 162.783 130.623 161.849C130.623 160.927 129.867 160.16 128.934 160.16ZM133.445 160.16C132.511 160.16 131.756 160.927 131.756 161.849C131.756 162.783 132.511 163.538 133.445 163.538C134.367 163.538 135.133 162.783 135.133 161.849C135.133 160.927 134.367 160.16 133.445 160.16ZM128.934 169.171C128 169.171 127.245 169.927 127.245 170.86C127.245 171.793 128 172.549 128.934 172.549C129.867 172.549 130.623 171.793 130.623 170.86C130.623 169.927 129.867 169.171 128.934 169.171ZM133.445 169.171C132.511 169.171 131.756 169.927 131.756 170.86C131.756 171.793 132.511 172.549 133.445 172.549C134.367 172.549 135.133 171.793 135.133 170.86C135.133 169.927 134.367 169.171 133.445 169.171ZM139.633 149.461V174.237C139.633 175.793 138.367 177.06 136.822 177.06H118.801C117.245 177.06 115.979 175.793 115.979 174.237V149.461C115.979 147.917 117.245 146.65 118.801 146.65H136.822C138.367 146.65 139.633 147.917 139.633 149.461ZM137.378 169.738C137.378 168.182 136.122 166.927 134.567 166.927H121.056C119.501 166.927 118.234 168.182 118.234 169.738V171.993C118.234 173.538 119.501 174.804 121.056 174.804H134.567C136.122 174.804 137.378 173.538 137.378 171.993V169.738ZM137.378 160.727C137.378 159.172 136.122 157.916 134.567 157.916H121.056C119.501 157.916 118.234 159.172 118.234 160.727V162.983C118.234 164.527 119.501 165.794 121.056 165.794H134.567C136.122 165.794 137.378 164.527 137.378 162.983V160.727ZM137.378 151.716C137.378 150.161 136.122 148.906 134.567 148.906H121.056C119.501 148.906 118.234 150.161 118.234 151.716V153.972C118.234 155.516 119.501 156.783 121.056 156.783H134.567C136.122 156.783 137.378 155.516 137.378 153.972V151.716ZM114.857 149.461C114.857 147.295 116.623 145.517 118.801 145.517H126.623C126.367 144.239 125.223 143.273 123.867 143.273H113.735C112.179 143.273 110.912 144.528 110.912 146.083V170.86C110.912 172.415 112.179 173.682 113.735 173.682H114.857V149.461ZM141.889 143.273H131.756C130.389 143.273 129.256 144.239 128.989 145.517H136.822C138.989 145.517 140.766 147.295 140.766 149.461V173.682H141.889C143.444 173.682 144.7 172.415 144.7 170.86V146.083C144.7 144.528 143.444 143.273 141.889 143.273Z" fill="white"/>
</svg>
