<svg width="223" height="223" viewBox="0 0 223 223" fill="none" xmlns="http://www.w3.org/2000/svg">
<path d="M25.7145 40.8102C27.3229 38.9332 29.0124 37.1123 30.7729 35.3436C28.9791 37.1061 27.4062 38.7936 25.7145 40.8102Z" fill="white"/>
<path d="M37.6041 29.0248C37.2687 29.3269 36.9437 29.6186 36.627 29.9061C36.9333 29.6415 37.2395 29.3769 37.5499 29.1165C37.5666 29.0852 37.5854 29.054 37.6041 29.0248Z" fill="white"/>
<path d="M20.0854 48.0769C22.2895 45.079 24.0604 42.7852 25.7145 40.8102C23.7104 43.1519 21.8312 45.5748 20.0854 48.0769Z" fill="white"/>
<path d="M136.448 3.2665C139.315 3.8665 142.09 4.579 144.773 5.39566C142.05 4.56233 139.235 3.83108 136.321 3.22275C136.362 3.23733 136.406 3.25191 136.448 3.2665Z" fill="white"/>
<path d="M97.6125 1.17692L101.463 0.75609C105.865 0.360257 110.283 0.239423 114.683 0.410257C114.746 0.404006 114.81 0.39984 114.875 0.395674C110.463 0.222757 106.029 0.34359 101.615 0.739423C100.983 0.795674 100.35 0.860256 99.7188 0.926923C99.4375 0.958173 99.1583 0.991507 98.8771 1.02276C98.5771 1.05817 98.275 1.09359 97.975 1.13109C97.7458 1.15817 97.5146 1.18317 97.2854 1.21234L97.6125 1.17692Z" fill="white"/>
<path d="M95.1041 1.52275C95.6874 1.43525 96.2708 1.35191 96.8562 1.27275C96.2708 1.35191 95.6874 1.43316 95.1041 1.52275Z" fill="white"/>
<path d="M97.2854 1.21234C97.1417 1.23109 96.9999 1.254 96.8562 1.27275C97.1083 1.23941 97.3604 1.20817 97.6125 1.17692L97.2854 1.21234Z" fill="white"/>
<path d="M56.5749 14.8144C57.0895 14.5227 57.6062 14.2373 58.127 13.954C57.6062 14.2373 57.0895 14.5248 56.5749 14.8144Z" fill="white"/>
<path d="M58.127 13.954C58.5416 13.729 58.9583 13.5061 59.377 13.2852C58.9583 13.5061 58.5416 13.7269 58.127 13.954Z" fill="white"/>
<path d="M59.7729 13.0769C70.1604 7.654 81.552 3.79358 93.2374 1.82275C81.5479 3.78525 70.1562 7.64566 59.7729 13.0769Z" fill="white"/>
<path d="M90.1854 6.74775C92.6437 6.18733 95.1187 5.69566 97.6041 5.279C97.527 5.16441 97.452 5.05191 97.3749 4.94358C94.902 5.35816 92.4416 5.84775 89.9979 6.40608C90.0604 6.5165 90.1229 6.63108 90.1854 6.74775Z" fill="white"/>
<path d="M105.092 4.24775C107.596 3.979 110.104 3.78525 112.617 3.66858C112.512 3.55608 112.41 3.44775 112.304 3.34358C109.806 3.45816 107.31 3.65191 104.821 3.91858C104.91 4.02483 105 4.13525 105.092 4.24775Z" fill="white"/>
<path d="M26.327 42.5415C27.9604 40.7936 29.6583 39.0915 31.4208 37.4394C31.4624 37.2686 31.5062 37.0977 31.552 36.9311C29.7999 38.5728 28.1104 40.2644 26.4874 42.004C26.4312 42.1811 26.377 42.3602 26.327 42.5415Z" fill="white"/>
<path d="M140.821 5.53941C138.787 5.1165 136.744 4.74983 134.692 4.44358C134.835 4.55191 134.981 4.66233 135.125 4.77691C137.19 5.08525 139.244 5.45191 141.287 5.87691C141.133 5.76233 140.977 5.64983 140.821 5.53941Z" fill="white"/>
<path d="M55.1645 20.1894C55.1624 20.0498 55.1645 19.9102 55.1666 19.7748C53.0083 20.979 50.8916 22.2436 48.8187 23.5644C48.8062 23.7082 48.7937 23.854 48.7812 24.0019C50.8645 22.6727 52.9937 21.4019 55.1645 20.1894Z" fill="white"/>
<path d="M61.7937 16.7352C64.0416 15.6436 66.3249 14.6144 68.6395 13.6498C68.6145 13.5207 68.5916 13.3936 68.5687 13.2686C66.2666 14.229 63.9958 15.2519 61.7604 16.3373C61.7687 16.4686 61.7812 16.5998 61.7937 16.7352Z" fill="white"/>
<path d="M75.6729 10.9477C78.0458 10.1123 80.4458 9.34358 82.8666 8.6415C82.8166 8.52275 82.7666 8.404 82.7166 8.28941C80.3104 8.98525 77.9249 9.74983 75.5645 10.5811C75.5999 10.6998 75.6354 10.8227 75.6729 10.9477Z" fill="white"/>
<path d="M74.4895 28.129C73.2124 28.6415 71.9458 29.1727 70.6854 29.7227C70.727 29.8561 70.7708 29.9894 70.8124 30.1227C72.0729 29.5727 73.3416 29.0415 74.6187 28.5269C74.577 28.3936 74.5333 28.2602 74.4895 28.129Z" fill="white"/>
<path d="M36.7458 51.2811C36.7083 51.1436 36.6729 51.0061 36.6354 50.8707C34.6333 52.5811 32.6937 54.3498 30.8208 56.1727C30.8562 56.3102 30.8916 56.4478 30.927 56.5873C32.802 54.7644 34.7416 52.9936 36.7458 51.2811Z" fill="white"/>
<path d="M1.36244 127.31C1.57703 129.321 1.88119 131.31 2.27286 133.275L2.29786 133.398C2.31244 133.471 2.32703 133.542 2.34161 133.614C2.35619 133.691 2.37286 133.767 2.38744 133.844C2.40411 133.919 2.41869 133.992 2.43328 134.067C2.01036 131.992 1.68328 129.887 1.45411 127.76C1.42286 127.608 1.39161 127.458 1.36244 127.31Z" fill="white"/>
<path d="M56.3208 37.454C58.6499 36.0998 61.027 34.8123 63.4437 33.5894C63.402 33.454 63.3604 33.3207 63.3208 33.1873C60.9041 34.4082 58.5291 35.6978 56.1999 37.0477C56.2395 37.1832 56.2791 37.3186 56.3208 37.454Z" fill="white"/>
<path d="M49.4749 41.6998C49.4354 41.5644 49.3958 41.429 49.3583 41.2936C47.127 42.7686 44.9479 44.3082 42.8249 45.9061C42.8624 46.0415 42.8999 46.1769 42.9395 46.3144C45.0624 44.7165 47.2416 43.1769 49.4749 41.6998Z" fill="white"/>
<path d="M1.21036 114.283C1.03119 116.492 0.954105 118.685 0.981189 120.858C1.01036 121.006 1.04161 121.154 1.07286 121.304C1.04786 119.131 1.12286 116.935 1.30202 114.725C1.27077 114.577 1.23952 114.431 1.21036 114.283Z" fill="white"/>
<path d="M3.55619 100.86C2.95203 103.121 2.45411 105.371 2.06453 107.608C2.09578 107.756 2.12494 107.902 2.15828 108.05C2.54786 105.81 3.04369 103.558 3.64994 101.298C3.61869 101.152 3.58744 101.006 3.55619 100.86Z" fill="white"/>
<path d="M170.792 21.1728C170.821 20.754 169.527 19.5165 167.677 18.6686C166.071 17.9894 166.235 18.5727 166.285 18.6957C166.312 18.7665 166.394 18.9019 166.506 19.0415C167.575 20.3436 170.74 21.9186 170.792 21.1728Z" fill="white"/>
<path d="M217.669 144.331C217.562 144.577 217.456 144.821 217.346 145.064C216.35 148.983 214.99 152.935 213.256 156.889L213.533 156.273C215.29 152.281 216.662 148.289 217.669 144.331Z" fill="white"/>
<path d="M212.998 157.46L212.817 157.858L212.46 158.646C212.587 158.375 212.708 158.102 212.831 157.831C212.871 157.746 212.908 157.658 212.948 157.573C213.048 157.35 213.152 157.129 213.248 156.906C213.344 156.696 213.442 156.483 213.533 156.273L213.256 156.889L212.998 157.46Z" fill="white"/>
<path d="M31.5374 189.058C32.5541 190.171 33.6124 191.256 34.7124 192.314C33.5208 191.15 32.4708 190.066 31.5374 189.058Z" fill="white"/>
<path d="M128.233 126.021C128.298 126.471 128.365 126.921 128.429 127.369C129.104 127.256 129.781 127.154 130.458 127.062C130.408 126.61 130.358 126.158 130.306 125.706C129.615 125.8 128.923 125.904 128.233 126.021Z" fill="white"/>
<path d="M90.0958 147.348C89.752 147.044 89.4083 146.739 89.0666 146.433C88.1687 147.391 87.3062 148.377 86.4833 149.389C86.8437 149.673 87.2062 149.958 87.5687 150.242C88.3729 149.252 89.2166 148.287 90.0958 147.348Z" fill="white"/>
<path d="M77.0937 185.819C77.377 186.848 77.7062 187.86 78.0854 188.854C78.5062 188.86 78.927 188.864 79.3499 188.867C78.9791 187.892 78.6541 186.902 78.3791 185.896C77.9499 185.871 77.5208 185.846 77.0937 185.819Z" fill="white"/>
<path d="M95.7749 142.035C95.4729 141.692 95.1708 141.348 94.8687 141.004C93.8374 141.852 92.8354 142.731 91.8666 143.635C92.1895 143.962 92.5145 144.285 92.8374 144.61C93.7854 143.725 94.7645 142.864 95.7749 142.035Z" fill="white"/>
<path d="M77.4083 173.198C76.9729 173.081 76.5374 172.964 76.102 172.844C75.9791 173.969 75.9083 175.083 75.8916 176.187C76.327 176.283 76.7624 176.377 77.202 176.471C77.2187 175.387 77.2874 174.296 77.4083 173.198Z" fill="white"/>
<path d="M81.4187 159.777C81.0104 159.564 80.6041 159.35 80.1999 159.133C80.1874 159.158 80.1749 159.183 80.1624 159.208C79.6124 160.335 79.1166 161.462 78.6749 162.587C79.0916 162.779 79.5083 162.969 79.9249 163.158C80.3583 162.056 80.8437 160.954 81.3812 159.852C81.3937 159.827 81.4062 159.802 81.4187 159.777Z" fill="white"/>
<path d="M76.6333 169.456C77.0645 169.598 77.4958 169.739 77.9291 169.879C78.1541 168.769 78.4333 167.65 78.7666 166.529C78.3395 166.364 77.9145 166.2 77.4895 166.031C77.1479 167.177 76.8645 168.319 76.6333 169.456Z" fill="white"/>
<path d="M75.9895 179.473C76.0729 180.556 76.2083 181.629 76.3916 182.687C76.8249 182.737 77.2583 182.785 77.6916 182.831C77.5124 181.796 77.3791 180.746 77.2979 179.685C76.8604 179.617 76.4249 179.546 75.9895 179.473Z" fill="white"/>
<path d="M114.315 214.031C115.679 214.204 117.048 214.333 118.423 214.417C118.556 214.242 118.692 214.064 118.827 213.883C117.483 213.802 116.142 213.677 114.806 213.506C114.644 213.683 114.479 213.858 114.315 214.031Z" fill="white"/>
<path d="M138.942 211.983C138.954 212.15 138.965 212.314 138.975 212.475C140.319 212.144 141.652 211.773 142.975 211.364C142.935 211.21 142.896 211.056 142.856 210.896C141.562 211.296 140.256 211.658 138.942 211.983Z" fill="white"/>
<path d="M146.696 209.592C146.765 209.739 146.831 209.887 146.898 210.031C148.192 209.55 149.469 209.033 150.729 208.481C150.635 208.348 150.542 208.212 150.446 208.075C149.212 208.614 147.962 209.121 146.696 209.592Z" fill="white"/>
<path d="M99.0041 209.856C100.146 210.362 101.323 210.831 102.537 211.262C102.785 211.108 103.033 210.954 103.281 210.796C102.092 210.375 100.94 209.914 99.8229 209.421C99.5479 209.569 99.277 209.714 99.0041 209.856Z" fill="white"/>
<path d="M130.817 213.996C132.187 213.823 133.556 213.608 134.917 213.354C134.935 213.187 134.952 213.016 134.971 212.844C133.637 213.094 132.3 213.302 130.956 213.473C130.91 213.65 130.865 213.825 130.817 213.996Z" fill="white"/>
<path d="M177.515 186.127C177.806 186.106 178.098 186.081 178.387 186.056C179.102 184.981 179.773 183.881 180.4 182.76C180.096 182.808 179.792 182.856 179.485 182.902C178.871 184 178.215 185.075 177.515 186.127Z" fill="white"/>
<path d="M106.952 211.946C106.729 212.112 106.508 212.277 106.287 212.437C107.39 212.737 108.517 213.01 109.669 213.25C109.86 213.292 110.054 213.329 110.248 213.369C110.44 213.202 110.633 213.031 110.827 212.858C110.637 212.821 110.448 212.781 110.26 212.741C109.131 212.506 108.029 212.241 106.952 211.946Z" fill="white"/>
<path d="M172.837 192.16C173.096 192.183 173.352 192.202 173.608 192.221C174.481 191.244 175.319 190.242 176.117 189.214C175.844 189.217 175.569 189.219 175.292 189.219C174.512 190.223 173.694 191.204 172.837 192.16Z" fill="white"/>
<path d="M167.29 197.581C167.508 197.644 167.725 197.702 167.94 197.758C168.952 196.892 169.931 195.996 170.877 195.071C170.642 195.033 170.404 194.994 170.165 194.95C169.24 195.854 168.281 196.731 167.29 197.581Z" fill="white"/>
<path d="M154.092 206.354C154.212 206.479 154.333 206.604 154.454 206.723C155.675 206.104 156.875 205.45 158.052 204.764C157.908 204.658 157.76 204.55 157.612 204.437C156.462 205.108 155.287 205.748 154.092 206.354Z" fill="white"/>
<path d="M81.1416 194.571C83.3166 194.775 85.4999 194.923 87.6854 195.012C87.6416 194.852 87.5958 194.692 87.552 194.529C85.677 194.452 83.8062 194.331 81.9395 194.171C81.4604 193.373 81.0083 192.562 80.5999 191.733C80.1854 191.752 79.7749 191.769 79.3624 191.783C79.7437 192.552 80.1604 193.304 80.5999 194.048C80.2062 194.01 79.8104 193.973 79.4166 193.931C79.4604 194.091 79.5041 194.254 79.5479 194.414C79.9958 194.46 80.4437 194.504 80.8916 194.546C80.8999 194.56 80.9083 194.577 80.9166 194.592C80.9916 194.585 81.0666 194.577 81.1416 194.571Z" fill="white"/>
<path d="M160.998 202.331C161.171 202.427 161.342 202.523 161.512 202.612C162.64 201.864 163.74 201.085 164.812 200.275C164.621 200.2 164.425 200.123 164.229 200.044C163.179 200.835 162.102 201.6 160.998 202.331Z" fill="white"/>
<path d="M120.14 127.856C120.262 128.294 120.383 128.731 120.506 129.167C121.808 128.792 123.121 128.454 124.442 128.154C124.348 127.71 124.254 127.267 124.158 126.821C122.808 127.129 121.469 127.473 120.14 127.856Z" fill="white"/>
<path d="M112.325 130.596C112.502 131.012 112.681 131.431 112.858 131.848C114.104 131.331 115.365 130.848 116.642 130.4C116.49 129.973 116.34 129.546 116.187 129.117C114.885 129.575 113.596 130.066 112.325 130.596Z" fill="white"/>
<path d="M104.921 134.179C105.15 134.571 105.381 134.962 105.612 135.354C106.779 134.704 107.967 134.087 109.175 133.502C108.971 133.098 108.765 132.692 108.56 132.287C107.327 132.883 106.112 133.514 104.921 134.179Z" fill="white"/>
<path d="M82.7416 197.267C83.3937 198.135 84.0895 198.979 84.8312 199.798C85.202 199.727 85.577 199.652 85.9499 199.577C85.227 198.775 84.5437 197.95 83.9062 197.1C83.5166 197.158 83.1291 197.214 82.7416 197.267Z" fill="white"/>
<path d="M87.177 202.173C88.002 202.937 88.8666 203.673 89.7729 204.377C90.1104 204.275 90.4499 204.167 90.7895 204.058C89.902 203.369 89.0541 202.648 88.2479 201.9C87.8895 201.994 87.5333 202.085 87.177 202.173Z" fill="white"/>
<path d="M139.169 88.2602C137.708 88.3477 137.29 89.854 137.367 90.8457C137.525 92.9519 139.427 94.0769 140.594 92.7582C141.827 91.3644 141.171 88.3957 139.169 88.2602Z" fill="white"/>
<path d="M98.1166 171.519C97.6708 171.381 97.2229 171.242 96.777 171.1C96.6395 171.494 96.5104 171.887 96.3937 172.281C96.8437 172.408 97.2958 172.535 97.7479 172.658C97.8604 172.281 97.9854 171.9 98.1166 171.519Z" fill="white"/>
<path d="M113.265 203.035C114.085 203.329 114.931 203.598 115.802 203.837C116.027 203.602 116.254 203.362 116.481 203.121C115.642 202.887 114.825 202.629 114.031 202.344C113.775 202.577 113.519 202.808 113.265 203.035Z" fill="white"/>
<path d="M162.26 188.019C162.585 188.079 162.908 188.137 163.229 188.194C163.773 187.498 164.29 186.785 164.777 186.056C164.437 186.025 164.096 185.992 163.754 185.956C163.283 186.658 162.785 187.346 162.26 188.019Z" fill="white"/>
<path d="M158.817 191.848C159.1 191.952 159.381 192.058 159.662 192.158C160.304 191.533 160.925 190.889 161.521 190.229C161.219 190.15 160.917 190.066 160.61 189.983C160.037 190.623 159.44 191.244 158.817 191.848Z" fill="white"/>
<path d="M169.479 165.575C169.333 164.862 169.156 164.158 168.946 163.467C168.558 163.696 168.169 163.925 167.779 164.152C167.981 164.819 168.154 165.498 168.294 166.185C168.69 165.983 169.085 165.779 169.479 165.575Z" fill="white"/>
<path d="M118.485 204.479C119.4 204.662 120.319 204.814 121.244 204.935C121.408 204.685 121.571 204.433 121.735 204.179C120.842 204.062 119.954 203.917 119.071 203.737C118.875 203.987 118.679 204.233 118.485 204.479Z" fill="white"/>
<path d="M145.596 200.602C145.719 200.812 145.842 201.023 145.962 201.229C146.819 200.856 147.665 200.46 148.494 200.042C148.344 199.85 148.192 199.654 148.037 199.456C147.235 199.858 146.421 200.242 145.596 200.602Z" fill="white"/>
<path d="M140.51 202.479C140.573 202.712 140.635 202.944 140.696 203.175C141.594 202.9 142.481 202.6 143.36 202.275C143.269 202.056 143.175 201.835 143.081 201.61C142.233 201.923 141.375 202.212 140.51 202.479Z" fill="white"/>
<path d="M165.937 182.167C165.667 182.719 165.381 183.262 165.079 183.8C165.437 183.808 165.794 183.817 166.15 183.823C166.462 183.267 166.76 182.702 167.037 182.131C167.142 181.921 167.24 181.712 167.337 181.502C166.969 181.523 166.598 181.542 166.227 181.56C166.131 181.762 166.035 181.964 165.937 182.167Z" fill="white"/>
<path d="M135.229 203.771C135.229 204.019 135.227 204.267 135.225 204.512C136.148 204.342 137.067 204.144 137.979 203.921C137.95 203.683 137.919 203.444 137.887 203.2C137.008 203.414 136.121 203.606 135.229 203.771Z" fill="white"/>
<path d="M168.371 174.808C168.769 174.708 169.167 174.608 169.56 174.506C169.696 173.737 169.794 172.973 169.856 172.214C169.458 172.344 169.058 172.471 168.658 172.596C168.598 173.327 168.502 174.066 168.371 174.808Z" fill="white"/>
<path d="M167.16 179.298C167.544 179.254 167.925 179.206 168.304 179.158C168.59 178.379 168.835 177.6 169.044 176.823C168.656 176.9 168.265 176.973 167.873 177.044C167.671 177.794 167.433 178.544 167.16 179.298Z" fill="white"/>
<path d="M168.615 168.277C168.69 168.981 168.729 169.696 168.737 170.417C169.14 170.264 169.54 170.112 169.94 169.956C169.931 169.21 169.89 168.471 169.812 167.742C169.415 167.921 169.015 168.1 168.615 168.277Z" fill="white"/>
<path d="M108.631 200.967C109.352 201.36 110.098 201.729 110.871 202.075C111.154 201.858 111.437 201.639 111.721 201.417C110.975 201.083 110.254 200.727 109.558 200.348C109.25 200.556 108.94 200.762 108.631 200.967Z" fill="white"/>
<path d="M99.8749 193.5C100.285 193.383 100.696 193.264 101.106 193.142C100.681 192.571 100.285 191.985 99.9187 191.385C99.4937 191.485 99.0687 191.585 98.6437 191.681C99.0229 192.304 99.4333 192.91 99.8749 193.5Z" fill="white"/>
<path d="M97.177 174.902C96.7187 174.804 96.2604 174.706 95.8041 174.606C95.6437 175.377 95.5208 176.144 95.4354 176.906C95.8958 176.981 96.3583 177.054 96.8229 177.125C96.9062 176.387 97.0249 175.648 97.177 174.902Z" fill="white"/>
<path d="M98.9083 189.542C98.602 188.914 98.3249 188.275 98.0812 187.621C97.6333 187.677 97.1854 187.731 96.7395 187.781C96.9937 188.458 97.2791 189.123 97.5958 189.773C98.0333 189.698 98.4708 189.621 98.9083 189.542Z" fill="white"/>
<path d="M102.469 194.804C102.073 194.946 101.679 195.085 101.285 195.223C101.785 195.779 102.315 196.319 102.871 196.839C103.246 196.683 103.623 196.525 104 196.364C103.46 195.862 102.95 195.342 102.469 194.804Z" fill="white"/>
<path d="M162.45 155.117C162.777 154.781 163.102 154.444 163.427 154.106C162.908 153.562 162.36 153.035 161.783 152.527C161.479 152.883 161.173 153.239 160.865 153.594C161.421 154.083 161.95 154.592 162.45 155.117Z" fill="white"/>
<path d="M166.185 157.583C165.785 156.971 165.354 156.375 164.894 155.794C164.554 156.112 164.212 156.429 163.869 156.746C164.312 157.304 164.727 157.881 165.115 158.473C165.473 158.177 165.829 157.881 166.185 157.583Z" fill="white"/>
<path d="M159.973 151.067C159.342 150.6 158.681 150.154 157.996 149.731C157.735 150.119 157.473 150.506 157.21 150.892C157.871 151.302 158.506 151.731 159.117 152.183C159.402 151.81 159.687 151.439 159.973 151.067Z" fill="white"/>
<path d="M104.627 198.339C105.24 198.821 105.881 199.281 106.548 199.719C106.881 199.529 107.215 199.337 107.55 199.144C106.904 198.721 106.285 198.277 105.694 197.812C105.337 197.992 104.981 198.167 104.627 198.339Z" fill="white"/>
<path d="M96.7312 181.469C96.6791 180.758 96.6583 180.039 96.6729 179.317C96.2083 179.271 95.7437 179.225 95.2812 179.177C95.2666 179.927 95.2854 180.673 95.3395 181.408C95.802 181.431 96.2666 181.45 96.7312 181.469Z" fill="white"/>
<path d="M155.86 148.527C155.487 148.337 155.108 148.152 154.721 147.973C154.498 148.381 154.275 148.789 154.048 149.196C154.421 149.369 154.787 149.548 155.148 149.731C155.387 149.331 155.625 148.931 155.86 148.527Z" fill="white"/>
<path d="M91.5083 28.2019C91.5708 27.8873 91.6333 27.5748 91.6958 27.2665C91.1229 27.2957 90.552 27.3436 89.9812 27.4061C89.952 27.7123 89.9249 28.0207 89.8979 28.3332C90.4333 28.2727 90.9708 28.229 91.5083 28.2019Z" fill="white"/>
<path d="M94.7333 28.2394C94.8645 27.9269 94.9937 27.6144 95.1249 27.3061C94.5562 27.2644 93.9854 27.2394 93.4124 27.2311C93.3166 27.5415 93.2187 27.854 93.1229 28.1686C93.6624 28.1748 94.1979 28.1978 94.7333 28.2394Z" fill="white"/>
<path d="M96.3333 28.4144C96.8166 28.4832 97.2979 28.5686 97.7749 28.6686C97.9708 28.3644 98.1645 28.0623 98.3604 27.7623C97.852 27.6561 97.3416 27.5665 96.827 27.4936C96.6624 27.7977 96.4979 28.1061 96.3333 28.4144Z" fill="white"/>
<path d="M76.5499 33.5123C76.2937 33.3102 76.0374 33.1123 75.7833 32.9165C75.3333 33.2457 74.8937 33.5894 74.4687 33.9436C74.7479 34.1186 75.0291 34.2977 75.3124 34.479C75.7124 34.1457 76.1249 33.8228 76.5499 33.5123Z" fill="white"/>
<path d="M68.2145 55.0352C68.6187 54.7915 69.0249 54.5498 69.4333 54.3082C69.2437 53.9373 69.0749 53.5561 68.9229 53.1686C68.5041 53.3852 68.0874 53.604 67.6729 53.8228C67.8333 54.2352 68.0145 54.6394 68.2145 55.0352Z" fill="white"/>
<path d="M68.5249 51.9894C68.4124 51.5873 68.3166 51.1811 68.2416 50.7707C67.8083 50.9352 67.377 51.104 66.9458 51.2707C67.027 51.7103 67.1291 52.1415 67.2499 52.5665C67.6729 52.3727 68.0979 52.179 68.5249 51.9894Z" fill="white"/>
<path d="M69.6374 57.2998C70.0145 57.0123 70.3916 56.7248 70.7708 56.4373C70.5145 56.0998 70.2729 55.754 70.0499 55.3977C69.6541 55.6623 69.2624 55.9269 68.8708 56.1936C69.1083 56.5727 69.3645 56.9415 69.6374 57.2998Z" fill="white"/>
<path d="M72.0624 37.7686C71.7104 37.6582 71.3604 37.5498 71.0124 37.4436C70.6729 37.8665 70.352 38.2977 70.0479 38.7394C70.4145 38.8207 70.7854 38.9019 71.1562 38.9873C71.4416 38.5728 71.7458 38.1665 72.0624 37.7686Z" fill="white"/>
<path d="M86.7062 28.8832C87.2312 28.7602 87.7604 28.6519 88.2937 28.5602C88.2874 28.254 88.2812 27.9498 88.2749 27.6477C87.7083 27.7457 87.1458 27.8602 86.5854 27.9915C86.6249 28.2852 86.6645 28.5832 86.7062 28.8832Z" fill="white"/>
<path d="M71.4999 59.3248C71.8395 58.9957 72.1812 58.6686 72.5229 58.3415C72.1979 58.0457 71.8895 57.7373 71.5979 57.4207C71.2354 57.7269 70.8749 58.0352 70.5166 58.3457C70.827 58.6832 71.1541 59.0082 71.4999 59.3248Z" fill="white"/>
<path d="M74.6645 59.9769C74.2749 59.729 73.902 59.4665 73.5458 59.1957C73.2249 59.5394 72.9062 59.8852 72.5895 60.2332C72.9687 60.5227 73.3645 60.8019 73.7791 61.0665C74.0729 60.7019 74.3666 60.3394 74.6645 59.9769Z" fill="white"/>
<path d="M89.6166 62.8477C89.0812 62.9186 88.5437 62.9727 88.0062 63.0123C87.9937 63.4373 87.9812 63.8644 87.9708 64.2936C88.5416 64.2519 89.1124 64.1936 89.6833 64.1186C89.6583 63.6936 89.6374 63.2707 89.6166 62.8477Z" fill="white"/>
<path d="M83.1749 62.8998C82.6416 62.8352 82.1124 62.754 81.5854 62.6519C81.4354 63.0707 81.2874 63.4915 81.1395 63.9102C81.6999 64.0186 82.2645 64.1061 82.8312 64.1748C82.9458 63.7477 83.0604 63.3248 83.1749 62.8998Z" fill="white"/>
<path d="M86.3916 63.0769C85.852 63.0811 85.3145 63.0707 84.7791 63.0415C84.6979 63.4665 84.6166 63.8957 84.5374 64.3227C85.1083 64.354 85.6812 64.3665 86.252 64.3623C86.2979 63.9332 86.3437 63.504 86.3916 63.0769Z" fill="white"/>
<path d="M93.0645 63.4665C92.9749 63.0561 92.8854 62.6457 92.7958 62.2352C92.2729 62.3686 91.7458 62.4852 91.2145 62.5873C91.2708 63.004 91.327 63.4227 91.3833 63.8415C91.9458 63.7332 92.5083 63.6082 93.0645 63.4665Z" fill="white"/>
<path d="M72.0749 36.2102C72.4041 36.3415 72.7312 36.4748 73.0624 36.6102C73.4104 36.2332 73.7729 35.8686 74.1479 35.5123C73.8395 35.354 73.5333 35.1978 73.2291 35.0436C72.8312 35.4207 72.4458 35.8102 72.0749 36.2102Z" fill="white"/>
<path d="M77.852 32.6165C78.2979 32.3311 78.752 32.0561 79.2166 31.7936C79.0166 31.5561 78.8166 31.3207 78.6208 31.0873C78.127 31.3665 77.6437 31.6582 77.1708 31.9623C77.3958 32.179 77.6249 32.3977 77.852 32.6165Z" fill="white"/>
<path d="M80.0333 62.2998C79.5291 62.1644 79.0374 62.0144 78.5624 61.8498C78.3479 62.2519 78.1354 62.654 77.9249 63.0561C78.4312 63.2311 78.9541 63.3915 79.4895 63.5352C79.6708 63.1227 79.852 62.7102 80.0333 62.2998Z" fill="white"/>
<path d="M80.6333 31.0477C81.1124 30.8123 81.602 30.5894 82.0958 30.3811C81.9583 30.1123 81.8208 29.8477 81.6833 29.5852C81.1583 29.8082 80.6374 30.0436 80.127 30.2957C80.2937 30.5436 80.4624 30.7936 80.6333 31.0477Z" fill="white"/>
<path d="M96.3479 62.4332C96.1916 62.0436 96.0374 61.654 95.8833 61.2644C95.3791 61.4561 94.8687 61.6311 94.3541 61.7936C94.477 62.1936 94.5999 62.5936 94.7208 62.9957C95.2687 62.8248 95.8104 62.6373 96.3479 62.4332Z" fill="white"/>
<path d="M67.3374 44.3686C67.7604 44.3373 68.1833 44.3082 68.6083 44.279C68.7374 43.8332 68.8874 43.3853 69.0583 42.9352C68.6437 42.9352 68.2291 42.9352 67.8166 42.9394C67.6333 43.4165 67.4749 43.8936 67.3374 44.3686Z" fill="white"/>
<path d="M83.5999 29.7957C84.1083 29.6144 84.6208 29.4478 85.1395 29.2957C85.0666 29.004 84.9916 28.7165 84.9208 28.4311C84.3687 28.5936 83.8229 28.7707 83.2833 28.9623C83.3874 29.2373 83.4937 29.5165 83.5999 29.7957Z" fill="white"/>
<path d="M69.6895 41.4852C69.8937 41.0707 70.1124 40.6623 70.3458 40.2623C69.9583 40.204 69.5708 40.1478 69.1854 40.0936C68.9374 40.5207 68.7041 40.954 68.4874 41.3977C68.4708 41.4332 68.4541 41.4686 68.4354 41.5061C68.8374 41.5311 69.2395 41.5582 69.6416 41.5873C69.6583 41.554 69.6729 41.5207 69.6895 41.4852Z" fill="white"/>
<path d="M98.7187 61.4186C98.5166 61.0498 98.3145 60.679 98.1124 60.3102C97.8666 60.429 97.6208 60.5415 97.3729 60.6519C97.5583 61.029 97.7458 61.404 97.9333 61.7832C98.1979 61.6665 98.4604 61.5436 98.7187 61.4186Z" fill="white"/>
<path d="M138.742 22.7707C136.892 23.0477 134.64 24.079 135.412 25.2227C136.921 26.7373 142.825 26.3186 143.962 24.9602C145.017 23.6998 142.223 22.2498 138.742 22.7707Z" fill="white"/>
<path d="M147.573 6.29566H147.571C147.573 6.29566 147.573 6.29566 147.573 6.29566L146.783 6.03108C146.3 5.87066 145.806 5.72066 145.315 5.5665C145.952 5.76441 146.585 5.96858 147.212 6.179C150.612 7.36441 158.552 10.2332 166.533 15.6457C169.598 17.7248 172.398 19.9311 174.937 22.2415C167.642 15.4727 158.435 9.99358 147.573 6.29566Z" fill="white"/>
<path d="M7.11661 72.8727C7.22703 72.5769 7.33744 72.2832 7.45203 71.9853C7.49161 71.8811 7.53119 71.7769 7.57078 71.6707C7.62078 71.5436 7.66661 71.4144 7.71661 71.2873C7.70411 71.3207 7.68953 71.3561 7.67703 71.3894L7.67494 71.3957C7.67494 71.3936 7.67703 71.3915 7.67703 71.3894L6.88953 73.4748C6.30203 75.0727 5.77494 76.6686 5.30619 78.2602C5.39578 78.0144 5.48744 77.7707 5.58119 77.5269C6.03536 75.979 6.54786 74.4269 7.11661 72.8727Z" fill="white"/>
<path d="M3.36869 108.585C3.71036 110.512 4.13953 112.412 4.65828 114.285C4.74786 113.975 4.84161 113.667 4.93536 113.356C4.42078 111.494 3.99369 109.604 3.65411 107.687C3.55619 107.987 3.46244 108.285 3.36869 108.585Z" fill="white"/>
<path d="M4.04369 83.7269C3.94578 83.9811 3.85203 84.2373 3.76036 84.4936C3.34369 86.5623 3.02703 88.6207 2.80619 90.6665C2.89994 90.3998 2.99578 90.1311 3.09578 89.8665C3.31453 87.8332 3.62911 85.7852 4.04369 83.7269Z" fill="white"/>
<path d="M15.2124 134.079C14.0249 132.506 12.9187 130.889 11.8937 129.233C11.8104 129.573 11.7291 129.91 11.652 130.25C12.6833 131.914 13.7958 133.539 14.9895 135.123C15.0604 134.775 15.1354 134.427 15.2124 134.079Z" fill="white"/>
<path d="M44.7291 156.837C42.6583 155.925 40.6562 154.946 38.7249 153.904C38.6916 154.289 38.6604 154.675 38.6312 155.058C40.5749 156.104 42.5874 157.089 44.6687 158.006C44.6874 157.619 44.7062 157.229 44.7291 156.837Z" fill="white"/>
<path d="M2.91244 101.869C2.75619 99.9061 2.6916 97.9228 2.72285 95.9207C2.62285 96.1978 2.52494 96.4748 2.43119 96.754C2.40202 98.7665 2.4666 100.76 2.62285 102.735C2.7166 102.446 2.81452 102.156 2.91244 101.869Z" fill="white"/>
<path d="M51.1374 159.375C51.1291 159.771 51.1208 160.164 51.1124 160.558C53.327 161.342 55.6083 162.052 57.952 162.689C57.9479 162.294 57.9437 161.894 57.9395 161.496C55.6083 160.86 53.3395 160.154 51.1374 159.375Z" fill="white"/>
<path d="M65.1187 163.173C65.1354 163.575 65.1541 163.975 65.1708 164.375C67.627 164.858 70.0979 165.256 72.5833 165.571C72.5499 165.169 72.5208 164.764 72.4895 164.36C70.0208 164.048 67.5604 163.652 65.1187 163.173Z" fill="white"/>
<path d="M79.9312 165.048C79.9749 165.454 80.0187 165.858 80.0645 166.262C81.3312 166.337 82.5979 166.392 83.8687 166.425C83.8166 166.023 83.7645 165.617 83.7145 165.21C82.452 165.177 81.1916 165.123 79.9312 165.048Z" fill="white"/>
<path d="M136.129 188.087C136.075 187.927 136.023 187.769 135.969 187.606C133.373 188.458 130.752 189.235 128.108 189.939C128.16 190.1 128.212 190.26 128.265 190.419C130.908 189.717 133.531 188.937 136.129 188.087Z" fill="white"/>
<path d="M165.502 174.06C163.204 175.454 160.858 176.785 158.471 178.05C158.527 178.208 158.583 178.367 158.642 178.525C161.031 177.258 163.377 175.927 165.675 174.533C165.619 174.377 165.56 174.219 165.502 174.06Z" fill="white"/>
<path d="M95.7208 194.604C95.7666 194.764 95.8145 194.925 95.8604 195.087C98.5874 195.025 101.315 194.879 104.037 194.65C103.99 194.489 103.942 194.327 103.894 194.167C101.173 194.396 98.4458 194.542 95.7208 194.604Z" fill="white"/>
<path d="M67.7437 192.098C66.2833 191.794 64.8437 191.462 63.4249 191.108C63.4666 191.269 63.5062 191.429 63.5479 191.589C64.9666 191.944 66.4083 192.275 67.8687 192.579C69.0666 192.831 70.2687 193.062 71.4749 193.273C71.4333 193.114 71.3895 192.952 71.3479 192.792C70.1437 192.579 68.9416 192.348 67.7437 192.098Z" fill="white"/>
<path d="M151.35 182.125C151.294 181.967 151.24 181.808 151.183 181.648C148.715 182.779 146.208 183.844 143.673 184.837C143.727 184.998 143.781 185.158 143.835 185.317C146.373 184.323 148.881 183.258 151.35 182.125Z" fill="white"/>
<path d="M3.90619 139.748C3.93536 139.9 3.96661 140.052 3.99994 140.204C4.61661 142.217 5.32911 144.198 6.13536 146.144C6.10203 145.992 6.07078 145.837 6.03953 145.685C5.23536 143.742 4.52286 141.76 3.90619 139.748Z" fill="white"/>
<path d="M217.89 103.087C217.823 102.942 217.756 102.796 217.69 102.65C217.369 104.879 216.944 107.123 216.41 109.375C216.477 109.523 216.544 109.669 216.61 109.814C217.144 107.562 217.569 105.317 217.89 103.087Z" fill="white"/>
<path d="M8.73328 151.402C8.76453 151.556 8.79578 151.71 8.82911 151.862C9.81869 153.729 10.8999 155.556 12.0687 157.339C12.0354 157.183 12.002 157.029 11.9708 156.875C10.802 155.094 9.72286 153.269 8.73328 151.402Z" fill="white"/>
<path d="M204.833 136.383C204.9 136.535 204.962 136.685 205.027 136.837C206.387 134.681 207.662 132.481 208.848 130.237C208.781 130.087 208.717 129.937 208.652 129.785C207.469 132.029 206.194 134.229 204.833 136.383Z" fill="white"/>
<path d="M172.246 169.694C172.304 169.85 172.365 170.006 172.423 170.164C174.621 168.646 176.762 167.067 178.848 165.431C178.787 165.275 178.727 165.119 178.667 164.962C176.583 166.598 174.442 168.175 172.246 169.694Z" fill="white"/>
<path d="M184.735 159.883C184.798 160.039 184.858 160.194 184.921 160.35C186.881 158.6 188.779 156.794 190.606 154.935C190.546 154.781 190.483 154.627 190.419 154.473C188.594 156.329 186.698 158.135 184.735 159.883Z" fill="white"/>
<path d="M35.8624 179.717C35.8979 179.875 35.9354 180.033 35.9708 180.192C37.9708 181.423 40.0479 182.589 42.202 183.687C42.1624 183.529 42.1249 183.371 42.0895 183.21C39.9374 182.114 37.8604 180.948 35.8624 179.717Z" fill="white"/>
<path d="M218.625 93.1144C218.56 92.9707 218.494 92.8269 218.425 92.6832C218.421 93.7852 218.392 94.8936 218.335 96.0061C218.402 96.1498 218.469 96.2936 218.535 96.4394C218.592 95.3248 218.623 94.2186 218.625 93.1144Z" fill="white"/>
<path d="M212.817 157.858C212.585 158.358 212.348 158.858 212.104 159.358C211.123 161.367 210.058 163.339 208.921 165.277C209.146 164.835 209.369 164.394 209.585 163.95C214.296 154.31 216.646 144.654 216.871 135.389C221.848 122.989 223.492 110.671 222.162 99.0936L222.046 98.1623C221.996 97.7186 221.94 97.2769 221.879 96.8373C220.585 87.2936 217.26 78.279 212.117 70.1665C210.073 60.7061 205.962 51.8665 199.998 44.0499L199.996 44.0457C199.996 44.0478 199.996 44.0478 199.998 44.0499L199.502 43.4082L199.287 43.1269C199.287 43.129 199.29 43.129 199.29 43.1311L199.287 43.1269C193.392 35.5644 185.74 28.9853 176.542 23.754C176.019 23.2457 175.485 22.7415 174.937 22.2436C175.458 22.7269 175.971 23.2186 176.473 23.7165C174.546 22.6207 172.554 21.5832 170.492 20.6103C170.496 20.6165 170.504 20.6249 170.508 20.6311C170.571 20.7061 170.646 20.8124 170.7 20.8936C172.835 21.904 174.896 22.9853 176.887 24.1269C184.05 31.3478 189.146 39.8999 191.885 49.2436C181.994 42.3124 169.923 37.0936 155.987 34.1832C152.415 33.4374 148.806 32.8644 145.175 32.4519C144.094 30.2082 142.756 28.0686 141.167 26.0561C140.967 26.079 140.7 26.1144 140.498 26.1332C140.475 26.1353 140.446 26.1374 140.423 26.1394C141.879 28.0936 143.112 30.1665 144.112 32.3374C118.204 29.6228 91.2708 35.1999 68.0979 46.8936C68.1437 46.4707 68.2041 46.0436 68.2875 45.6144C67.8562 45.6707 67.425 45.729 66.9979 45.7894C66.9062 46.2603 66.8375 46.729 66.7896 47.1936C67.1812 47.1165 67.5729 47.0394 67.9646 46.9624C61.1458 50.4123 54.6562 54.3915 48.6146 58.8436C47.8125 53.3394 48.7333 47.379 51.6396 41.4332C55.8271 32.8644 63.4 25.8311 72.4687 21.1915C77.9479 19.0186 83.6166 17.1769 89.4312 15.6957C95.3479 14.7853 101.402 14.8519 107.221 16.0665C107.417 15.8457 107.617 15.6269 107.815 15.4103C103.479 14.504 99.0166 14.2207 94.5729 14.4873C111.646 10.8123 129.833 10.2269 148.058 13.4394C147.992 13.3373 147.927 13.2332 147.86 13.1311C128.75 9.13943 108.633 10.0873 89.5937 15.0144C83.1125 16.0019 76.7896 18.129 71.0833 21.1874C62.5208 24.7186 54.3604 29.0749 46.8125 34.1457C47.1875 33.6624 47.5687 33.1811 47.9604 32.7082C47.6958 32.7019 47.4312 32.6957 47.1687 32.6936C46.4666 33.5394 45.7958 34.404 45.15 35.2832C38.4896 39.9082 32.3291 45.0998 26.8375 50.7936C27.3396 49.5561 27.8875 48.3186 28.4937 47.0832C31.6854 40.5478 36.0479 34.5478 41.2812 29.204C41.7479 28.8561 42.2062 28.4999 42.6791 28.1582C42.6979 28.0207 42.7187 27.8853 42.7416 27.7519C62.6396 8.48318 94.0666 -1.58765 122.235 4.29777C122.427 4.21443 122.617 4.1311 122.808 4.05193C121.933 3.8686 121.056 3.7061 120.177 3.55402C122.677 3.59568 125.175 3.71652 127.665 3.9186C127.533 3.8061 127.402 3.69777 127.271 3.59152C124.787 3.38943 122.296 3.2686 119.8 3.22902C119.917 3.3311 120.031 3.43943 120.148 3.54777C91.725 -1.36682 60.5291 9.31235 41.0375 28.9811C39.6646 30.0165 38.3062 31.0686 36.9854 32.1561C36.9479 32.3165 36.9146 32.4769 36.8833 32.6415C37.775 31.9061 38.6812 31.1832 39.6 30.4707C34.7875 35.5915 30.7562 41.2832 27.7479 47.4374C27.0187 48.9311 26.3625 50.4228 25.7771 51.9144C21.3062 56.6769 17.2979 61.7769 13.8375 67.1707C14.9312 62.554 16.6021 57.8853 18.8812 53.2207C22.2396 46.3499 26.6833 39.9707 31.9687 34.1936C33.3271 32.8978 34.8416 31.5165 36.6291 29.904C35.1104 31.2124 33.6333 32.5582 32.2021 33.9394C38.1916 27.4415 45.25 21.7124 53.0291 16.9103C53.1771 16.8165 53.3271 16.7248 53.4771 16.6332C53.5312 16.6019 53.5833 16.5686 53.6375 16.5373L55.8708 15.2186C56.1062 15.0832 56.3396 14.9478 56.5771 14.8123C56.4625 14.8769 56.3458 14.9394 56.2312 15.004C55.9812 15.1478 55.7333 15.2957 55.4833 15.4394C55.3646 15.5082 55.2458 15.5769 55.1291 15.6457C54.8437 15.8123 54.5604 15.9811 54.2791 16.1498C54.0416 16.2915 53.8041 16.4353 53.5666 16.5769L53.4104 16.6707L52.5187 17.2207C44.6541 22.1228 37.5354 27.9728 31.5187 34.6019C31.2687 34.8478 31.0229 35.0957 30.775 35.3436C30.9791 35.1415 31.1875 34.9394 31.3979 34.7353C27.7062 38.8207 24.4354 43.1957 21.6625 47.829C21.7125 47.6728 21.7625 47.5186 21.8146 47.3644C20.3271 49.1978 18.9104 51.0769 17.5687 52.9978C17.4958 53.1957 17.4271 53.3957 17.3583 53.5957C18.6708 51.7165 20.0562 49.879 21.5083 48.0832C20.4666 49.8415 19.4958 51.6373 18.6021 53.4665C16.2708 58.2353 14.5771 63.0103 13.4791 67.729C11.6271 70.6603 9.93331 73.6748 8.41872 76.7707C8.14164 77.3394 7.87497 77.9082 7.61247 78.4769C9.32497 68.8748 13.3041 58.7332 19.9354 48.2915C19.9854 48.2207 20.0354 48.1477 20.0854 48.0769C20.0499 48.1227 20.0166 48.1665 19.9833 48.2144L19.575 48.8082C17.2458 52.2144 15.1687 55.7624 13.3729 59.4374C13.2416 59.7082 13.1187 59.979 12.9896 60.2499C12.0979 61.8207 11.2562 63.4144 10.4646 65.0311C10.3791 65.2519 10.2958 65.4728 10.2166 65.6957C10.8937 64.3103 11.6125 62.9415 12.3646 61.5894C9.49997 67.9207 7.63956 74.2457 6.72914 80.4499C2.45831 90.2853 0.320807 100.096 0.143723 109.539L0.12914 110.702C0.04789 120.594 2.11247 130.073 6.10206 138.75C6.85414 148.421 9.65414 157.619 14.3062 165.96L14.8791 166.975L15.45 167.96C15.45 167.96 15.4479 167.96 15.4479 167.958L15.45 167.96C18.0083 172.333 21.0896 176.456 24.6479 180.283C24.8416 180.577 25.0312 180.871 25.2291 181.162C26.2062 182.602 28.0208 185.267 31.5354 189.058C29.0916 186.383 26.8896 183.558 24.9437 180.604C27.7187 183.552 30.7854 186.319 34.1291 188.879C36.725 192.439 39.7271 195.781 43.1146 198.86C40.325 196.929 37.5896 194.823 34.925 192.519C34.8541 192.45 34.7833 192.383 34.7124 192.314C34.7666 192.369 34.8146 192.419 34.8708 192.471L35.5291 193.092C38.5562 195.917 41.8833 198.537 45.4979 200.929C48.8583 203.719 52.5521 206.271 56.5666 208.542L56.5687 208.544C56.5687 208.544 56.5666 208.544 56.5666 208.542L57.6166 209.129L58.9229 209.839C58.9229 209.839 58.9229 209.839 58.9208 209.837L58.9229 209.839C61.4458 211.187 64.0896 212.423 66.8458 213.548C69.7125 214.892 72.725 216.098 75.875 217.156L77.1333 217.569L77.4458 217.671C77.4437 217.671 77.4437 217.669 77.4437 217.669L77.4458 217.671C77.7666 217.773 78.0937 217.867 78.4187 217.967C77.7166 217.754 77.025 217.529 76.3354 217.302C73.3062 216.292 70.4021 215.144 67.6333 213.864C72.5583 215.819 77.8396 217.406 83.4583 218.581C86.1979 219.154 88.9625 219.608 91.7416 219.964C92.8458 220.242 93.9646 220.504 95.1041 220.742C98.2562 221.4 101.446 221.879 104.654 222.194C98.5916 221.996 92.5583 221.3 86.6354 220.062C83.8416 219.479 81.1354 218.787 78.5187 217.998C81.2146 218.821 84.0021 219.544 86.8875 220.148C93.0916 221.444 99.4146 222.144 105.769 222.298C133.492 224.669 162.554 214.535 182.61 196.623C190.252 190.6 196.969 183.671 202.398 175.994L203.212 174.825C205.071 172.127 206.767 169.339 208.294 166.473C209.558 164.36 210.737 162.202 211.815 160C212.035 159.548 212.25 159.096 212.46 158.646L212.817 157.858ZM209.387 164.239C209.129 164.769 208.865 165.294 208.596 165.817C204.44 172.769 199.31 179.223 193.41 185.077C194.485 183.683 195.515 182.258 196.487 180.804C196.394 180.862 196.298 180.921 196.204 180.979C195.125 182.589 193.977 184.158 192.775 185.696C187.821 190.529 182.344 194.946 176.46 198.889C183.958 192.475 190.123 184.856 194.287 176.331C196.225 172.369 197.633 168.404 198.548 164.483C204.833 157.435 210.142 149.704 214.198 141.404C215.092 139.579 215.908 137.752 216.656 135.929C216.394 145.133 214.05 154.696 209.387 164.239ZM113.36 220.342C109.283 220.137 105.231 219.627 101.244 218.796C97.975 218.112 94.8646 217.233 91.9187 216.181C103.108 217.131 114.465 216.492 125.575 214.448C125.946 214.429 126.319 214.417 126.69 214.392C126.715 214.335 126.74 214.277 126.765 214.221C138.306 211.992 149.567 208.256 160.077 203.219C160.065 203.152 160.05 203.085 160.037 203.019C150.34 207.658 139.027 211.527 126.908 213.881C126.912 213.875 126.915 213.867 126.919 213.86C125.571 213.948 124.221 213.996 122.871 213.998C122.765 214.179 122.658 214.358 122.552 214.533C122.833 214.533 123.117 214.523 123.396 214.519C112.965 216.267 102.006 216.869 91.0187 215.852C87.7604 214.633 84.7083 213.198 81.8833 211.567C81.7396 211.594 81.5979 211.621 81.4562 211.648C84.1521 213.202 87.05 214.579 90.1354 215.762C84.8146 215.229 79.4896 214.319 74.2187 212.971C68.9875 210.067 64.4041 206.592 60.5291 202.662C64.425 203.964 68.5041 205.069 72.7562 205.958C90.4104 209.646 108.91 209.175 126.662 205.289C126.721 205.289 126.777 205.292 126.833 205.292C126.84 205.277 126.846 205.262 126.85 205.248C127.837 205.031 128.823 204.804 129.806 204.564C129.752 204.779 129.696 204.992 129.64 205.202C130.577 205.144 131.51 205.056 132.442 204.939C132.477 204.689 132.51 204.437 132.544 204.183C131.892 204.264 131.237 204.325 130.583 204.377C137.898 202.558 145.06 200.152 151.96 197.225C151.446 197.552 150.927 197.871 150.4 198.177C150.581 198.36 150.76 198.539 150.942 198.717C151.742 198.254 152.525 197.769 153.292 197.262C153.127 197.133 152.96 197.004 152.794 196.873C153.704 196.479 154.612 196.079 155.512 195.667C155.521 195.671 155.529 195.677 155.535 195.681C155.562 195.66 155.587 195.639 155.615 195.619C171.927 188.156 186.602 177.71 198.077 165.004C197.167 168.81 195.785 172.658 193.908 176.502C189.608 185.3 183.169 193.125 175.323 199.648C157.204 211.508 135.394 218.931 113.36 220.342ZM173.137 201.406C157.412 213.608 136.637 220.767 116.194 220.433C136.379 218.717 156.262 211.964 173.137 201.406ZM112.079 220.421C105 220.798 97.9062 220.55 90.9104 219.629C85.2062 218.106 79.9687 216.046 75.2375 213.525C76.2166 213.758 77.2062 213.981 78.2062 214.189C82.4479 215.077 86.7396 215.712 91.0604 216.11C94.175 217.252 97.4771 218.2 100.956 218.927C104.619 219.692 108.337 220.181 112.079 220.421ZM30.1 175.831C28.8104 174.879 27.5625 173.898 26.3521 172.887C25.1771 169.402 24.3229 165.802 23.8041 162.112C25.6396 163.71 27.5729 165.239 29.6021 166.694C31.0729 176.275 34.9062 185.219 40.8312 193.014C38.5833 191.637 36.4375 190.173 34.3875 188.637C31.0396 183.91 28.4062 178.808 26.5375 173.427C27.7229 174.412 28.9458 175.375 30.2083 176.304C30.1708 176.148 30.1354 175.989 30.1 175.831ZM7.41247 122.11C7.85414 123.133 8.31872 124.146 8.81247 125.144C8.89581 124.814 8.98122 124.485 9.06872 124.156C8.55206 123.117 8.07289 122.062 7.61664 120.998C8.23539 117.696 9.07914 114.369 10.1708 111.029C12.0375 115.698 14.5208 120.127 17.5791 124.244C14.7479 133.435 13.6646 142.823 14.5812 152.017C11.3958 148.008 8.70414 143.721 6.54164 139.21C6.13956 133.642 6.41456 127.919 7.41247 122.11ZM76.4479 62.4811C76.6896 62.0894 76.9312 61.6999 77.175 61.3103C76.95 61.2123 76.7291 61.1103 76.5125 61.0061C98.2271 50.5853 123.154 45.7061 147.156 48.2457C146.908 53.4165 145.537 58.779 142.923 64.1332C131.183 88.1561 98.9229 102.879 70.8687 97.0186C68.5416 96.5332 66.3166 95.9165 64.1979 95.1873C64.4812 94.9686 64.7583 94.7457 65.0437 94.529C64.9312 94.3457 64.8208 94.1623 64.7104 93.9811C64.2958 94.2957 63.8896 94.6186 63.4812 94.9373C60.5646 93.8853 57.8583 92.6103 55.3791 91.1415C59.0396 88.0103 62.9312 85.0894 67.0145 82.3957C68.5562 83.004 70.1729 83.5374 71.8687 83.979C72.0125 83.5436 72.1562 83.1082 72.3021 82.6728C70.9687 82.3249 69.6854 81.9186 68.45 81.4623C80.5458 73.7207 94.2396 67.9478 108.515 64.6103C108.404 64.204 108.296 63.7999 108.185 63.3957C93.4854 66.8311 79.3958 72.8353 67.0187 80.9019C62.5291 79.0415 58.7541 76.4644 55.7979 73.3728C61.8396 68.9561 68.3437 65.0332 75.1791 61.6603C75.1416 61.7123 75.1041 61.7644 75.0666 61.8165C75.5104 62.054 75.9729 62.2749 76.4479 62.4811ZM98.1687 138.692C98.4104 139.006 98.6521 139.317 98.8958 139.629C99.5166 139.179 100.152 138.742 100.794 138.31C123.665 134.708 145.494 123.86 161.01 108.173C166.087 109.621 170.729 111.567 174.894 113.929C167.206 122.998 157.669 130.829 146.983 137.106C158.142 130.669 167.577 122.76 175.027 114.004C183.971 119.102 190.706 126.125 194.808 134.3C187.352 144.056 178.046 152.677 167.504 159.883C167.433 159.744 167.369 159.6 167.294 159.462C166.927 159.737 166.556 160.012 166.185 160.285C166.248 160.406 166.304 160.527 166.365 160.648C162.456 163.26 158.387 165.685 154.179 167.898C151.973 163.983 147.802 160.981 142.156 159.802C142 160.219 141.844 160.637 141.685 161.052C147.296 162.442 150.996 165.175 152.975 168.519C135.8 177.342 116.473 182.742 97.0271 183.783C97.0146 183.714 97 183.646 96.9875 183.575C96.5271 183.583 96.0646 183.587 95.6062 183.589C95.6208 183.677 95.6396 183.76 95.6562 183.846C85.5562 184.279 75.4396 183.539 65.5896 181.481C58.7375 180.05 52.3479 178.05 46.45 175.56C44.9479 166.706 45.8062 157.202 49.3271 147.598C53.8583 149.352 58.6979 150.787 63.8333 151.86C70.1625 153.181 76.6187 153.885 83.1021 154.025C82.7354 154.592 82.3771 155.164 82.0333 155.744C82.425 155.985 82.8187 156.223 83.2125 156.462C83.6979 155.644 84.2166 154.842 84.75 154.05C106.496 154.198 128.46 147.992 146.983 137.106C135.823 143.548 122.942 148.519 108.604 151.398C100.558 153.014 92.6479 153.739 85.0104 153.662C85.0979 153.537 85.1791 153.406 85.2687 153.281C84.8875 153.019 84.5104 152.758 84.1333 152.496C83.8687 152.871 83.6166 153.254 83.3646 153.635C71.1875 153.329 59.7375 150.975 49.5812 146.921C50.2958 145.042 51.1041 143.16 52.0229 141.279C53.0396 139.198 54.1666 137.164 55.3875 135.181C58.3166 136.137 61.3687 136.956 64.5479 137.621C75.5458 139.919 86.9583 140.181 98.1687 138.692ZM175.462 113.489C191.498 94.3707 198.125 71.2936 192.621 50.6269C200.604 56.3228 207.137 63.1519 212.042 70.7915C214.979 85.5207 212.915 101.706 205.027 117.844C202.296 123.435 198.981 128.767 195.183 133.8C191.079 125.635 184.367 118.61 175.462 113.489ZM195.875 149.202C196.833 148.083 197.765 146.946 198.673 145.796C199.735 151.517 199.669 157.558 198.362 163.725C193.6 169.06 188.275 174.004 182.5 178.502C182.631 178.198 182.771 177.894 182.894 177.589C182.573 177.675 182.25 177.758 181.925 177.842C181.702 178.389 181.462 178.939 181.212 179.487C173.917 185.023 165.937 189.862 157.492 193.894C157.292 193.798 157.09 193.702 156.887 193.602C156.337 194.071 155.769 194.525 155.19 194.969C146.077 199.121 136.458 202.342 126.608 204.514C125.879 204.506 125.15 204.483 124.423 204.437C124.321 204.642 124.217 204.842 124.112 205.042C114.998 206.879 105.706 207.817 96.4479 207.754C95.4541 207.21 94.4937 206.642 93.5687 206.039C93.25 206.162 92.9333 206.283 92.6146 206.402C93.3229 206.862 94.0583 207.302 94.8083 207.729C87.2666 207.579 79.7583 206.769 72.3979 205.231C67.9583 204.304 63.7125 203.139 59.6604 201.762C55.5375 197.389 52.2687 192.483 49.9396 187.196C51.9104 187.987 53.9291 188.727 56.0021 189.41C55.9625 189.25 55.9229 189.092 55.8833 188.931C53.7708 188.235 51.7146 187.479 49.7104 186.671C48.2666 183.289 47.2062 179.756 46.5458 176.11C52.4416 178.596 58.8271 180.594 65.6729 182.023C75.5291 184.081 85.6541 184.823 95.7604 184.392C95.8521 184.837 95.9541 185.279 96.0729 185.719C96.5271 185.689 96.9812 185.66 97.4375 185.629C97.3208 185.2 97.2229 184.764 97.1312 184.327C116.637 183.287 136.025 177.864 153.248 169.006C156.954 175.958 153.496 185.321 144.44 190.854C137.567 195.052 127.535 196.573 119.927 192.367C120.042 192.344 120.156 192.323 120.271 192.3C120.219 192.139 120.169 191.979 120.119 191.819C119.837 191.877 119.556 191.929 119.273 191.985C118.387 191.446 117.535 190.829 116.731 190.121C116.348 190.333 115.967 190.544 115.585 190.752C116.185 191.312 116.846 191.833 117.554 192.317C115.721 192.658 113.881 192.964 112.035 193.233C112.085 193.394 112.135 193.554 112.183 193.714C114.187 193.425 116.185 193.089 118.175 192.712C120.065 193.883 122.283 194.779 124.804 195.306C136.254 197.698 149.421 191.689 154.21 181.883C156.542 177.114 156.456 172.327 154.44 168.389C158.642 166.177 162.706 163.754 166.61 161.144C166.773 161.485 166.927 161.831 167.073 162.181C167.454 161.931 167.835 161.679 168.215 161.425C168.069 161.073 167.912 160.725 167.75 160.379C178.29 153.171 187.594 144.552 195.05 134.8C196.66 138.11 197.842 141.604 198.565 145.231C197.629 146.417 196.671 147.587 195.685 148.739C195.75 148.894 195.812 149.048 195.875 149.202ZM30.1375 148.544C30.6458 145.271 31.4146 141.967 32.4604 138.646C37.3 142.058 42.7437 145 48.7437 147.373C45.2479 156.975 44.4 166.475 45.8958 175.329C40.0916 172.833 34.7771 169.856 29.9854 166.469C29.2 161.033 29.1791 155.394 29.9729 149.648C30.9646 150.362 31.9771 151.058 33.0166 151.733C33.0562 151.356 33.0958 150.977 33.1396 150.598C32.1125 149.933 31.1146 149.246 30.1375 148.544ZM51.5062 140.885C50.5604 142.821 49.7291 144.758 49.0021 146.689C43.0937 144.283 37.6354 141.298 32.7354 137.804C33.7896 134.598 35.0916 131.377 36.6646 128.158C36.9208 127.635 37.1916 127.119 37.4583 126.6C42.5541 129.989 48.3375 132.825 54.75 134.977C53.5771 136.9 52.4896 138.871 51.5062 140.885ZM39.3771 106.252C35.9646 110.739 32.975 115.483 30.475 120.454C27.5021 117.789 24.8666 114.892 22.5875 111.802C25.0083 106.889 27.8833 102.183 31.1541 97.7123C33.4833 100.806 36.2312 103.673 39.3771 106.252ZM31.8979 96.7186C35.4916 91.9311 39.5354 87.4165 43.9646 83.2144C46.4937 86.3061 49.5896 89.0707 53.2021 91.4144C48.4021 95.6707 44.025 100.296 40.1604 105.239C36.9958 102.671 34.2312 99.8123 31.8979 96.7186ZM30.2083 120.987C30.1521 121.1 30.0958 121.21 30.0396 121.323C28.2854 124.914 26.8458 128.508 25.7041 132.085C22.8062 129.396 20.1875 126.492 17.8854 123.392C19.0604 119.717 20.5375 116.023 22.3271 112.333C24.6062 115.423 27.2396 118.319 30.2083 120.987ZM30.8354 122.194C30.9083 122.042 30.9854 121.894 31.0604 121.742C32.9083 123.342 34.8812 124.854 36.9729 126.271C36.7229 126.758 36.4666 127.242 36.2271 127.733C34.6396 130.981 33.3271 134.231 32.2666 137.469C30.2583 136.012 28.3458 134.471 26.5375 132.848C27.6708 129.306 29.0958 125.748 30.8354 122.194ZM37.7354 126.058C40.4 120.983 43.6062 116.167 47.2708 111.642C52.9312 114.846 59.4458 117.304 66.7208 118.825C67.025 118.887 67.3333 118.942 67.6395 119C62.8021 123.679 58.5666 128.842 55.0979 134.412C48.6562 132.273 42.8479 129.448 37.7354 126.058ZM37.2479 125.731C35.1541 124.314 33.1771 122.806 31.3271 121.208C33.8416 116.227 36.85 111.473 40.2896 106.981C42.2854 108.548 44.4333 110.004 46.725 111.333C43.0812 115.852 39.8979 120.664 37.2479 125.731ZM41.075 105.971C44.9854 101 49.4208 96.3582 54.2812 92.0915C56.7104 93.5686 59.3562 94.8603 62.2062 95.9415C56.8083 100.289 51.8916 105.098 47.5771 110.3C45.2625 108.979 43.0896 107.533 41.075 105.971ZM65.6333 81.8186C61.6521 84.4915 57.8562 87.3811 54.2812 90.4686C50.6208 88.154 47.4854 85.3998 44.9333 82.3103C48.0125 79.4561 51.2666 76.7478 54.6771 74.1978C57.575 77.2894 61.2604 79.8894 65.6333 81.8186ZM44.7458 82.0873C41.5458 78.1478 39.2833 73.6686 38.0729 68.8582C41.125 66.0248 44.3437 63.3311 47.7083 60.7853C48.6666 65.6457 50.9562 70.1207 54.3958 73.8915C50.9937 76.4853 47.7729 79.2248 44.7458 82.0873ZM43.7896 83.0019C39.3521 87.2978 35.3458 91.8582 31.8208 96.6144C28.7646 92.5353 26.4521 88.0519 24.9521 83.2853C28.5896 78.4998 32.6625 73.979 37.1062 69.7603C38.3396 74.5686 40.6041 79.0478 43.7896 83.0019ZM31.0875 97.6186C27.7896 102.179 24.9333 106.914 22.5562 111.76C19.525 107.642 17.1229 103.183 15.4062 98.4707C17.9146 93.5311 20.8625 88.7957 24.2 84.2915C25.7166 89.054 28.0354 93.5353 31.0875 97.6186ZM22.2958 112.289C20.5396 115.927 19.0583 119.627 17.8604 123.36C14.8229 119.264 12.3396 114.831 10.4833 110.112C11.6541 106.662 13.0729 103.202 14.7625 99.7415C14.8833 99.4936 15.0125 99.2498 15.1354 99.004C16.8604 103.714 19.2646 108.171 22.2958 112.289ZM17.6083 124.283C19.9 127.362 22.5083 130.269 25.425 132.969C24.4125 136.281 23.6583 139.577 23.1521 142.844C21.6979 141.494 20.3146 140.098 19.0062 138.656C18.9375 139.014 18.8687 139.371 18.8041 139.727C20.125 141.179 21.5187 142.587 22.9854 143.946C22.1916 149.698 22.1708 155.346 22.8771 160.808C19.8854 158.121 17.1708 155.248 14.7375 152.212C13.7854 143.248 14.6812 133.827 17.6083 124.283ZM26.2604 133.719C28.0604 135.327 29.9708 136.858 31.9896 138.308C30.9458 141.629 30.1812 144.933 29.6729 148.206C29.1021 147.789 28.5354 147.369 27.9833 146.939C27.9291 147.312 27.8791 147.683 27.8312 148.054C28.3812 148.481 28.9416 148.898 29.5083 149.312C28.7187 155.06 28.7375 160.698 29.5187 166.137C27.4937 164.683 25.5646 163.158 23.7333 161.562C22.5625 152.66 23.3354 143.256 26.2604 133.719ZM30.0729 167.025C34.8687 170.41 40.1854 173.385 45.9937 175.877C46.6521 179.525 47.7062 183.06 49.1437 186.442C49.0187 186.392 48.8916 186.342 48.7666 186.289C48.8041 186.45 48.8437 186.61 48.8833 186.769C49.0437 186.835 49.2083 186.9 49.3687 186.964C51.6875 192.254 54.9375 197.162 59.0375 201.546C52.6208 199.321 46.7104 196.554 41.3479 193.321C35.4021 185.539 31.5521 176.602 30.0729 167.025ZM59.8937 202.444C63.7333 206.371 68.2771 209.85 73.4562 212.769C66.2604 210.869 59.1708 208.156 52.3271 204.492C48.4521 201.398 45.0333 197.971 42.0896 194.273C47.4875 197.494 53.4375 200.242 59.8937 202.444ZM222.048 98.1832C223.369 109.671 221.767 121.887 216.892 134.189C216.917 128.337 216.092 122.648 214.469 117.231C214.54 117.021 214.615 116.812 214.683 116.602C214.619 116.454 214.552 116.306 214.485 116.16C214.427 116.339 214.362 116.517 214.3 116.696C213.898 115.396 213.454 114.11 212.958 112.846C212.94 112.894 212.917 112.952 212.892 113.01C213.256 112.112 213.369 110.725 212.967 109.673C212.454 108.596 211.794 109.096 211.433 110.114C210.802 111.894 211.294 114.248 212.219 113.875C212.467 113.775 212.687 113.487 212.86 113.089C212.85 113.112 212.842 113.137 212.833 113.156C213.325 114.45 213.767 115.762 214.167 117.085C213.494 119.048 212.742 121.01 211.9 122.977C211.967 123.127 212.033 123.275 212.098 123.425C212.925 121.489 213.665 119.558 214.331 117.629C215.927 123.106 216.729 128.839 216.679 134.725C215.892 136.673 215.025 138.623 214.073 140.573C210.102 148.696 204.94 156.277 198.829 163.206C200.102 157.044 200.146 151.008 199.069 145.292C199.619 144.587 200.162 143.879 200.692 143.164C200.629 143.01 200.565 142.858 200.5 142.706C199.996 143.387 199.479 144.062 198.956 144.733C198.225 141.106 197.037 137.612 195.425 134.3C199.237 129.252 202.562 123.906 205.304 118.296C213.185 102.167 215.258 85.9894 212.342 71.2624C217.502 79.4478 220.806 88.5498 222.048 98.1832ZM176.971 24.1707C186.254 29.4978 193.946 36.1811 199.846 43.8582C205.719 51.5999 209.779 60.3415 211.812 69.6894C206.881 62.054 200.329 55.2332 192.323 49.5478C189.687 40.404 184.648 31.7603 176.971 24.1707ZM156.206 35.1874C170.185 38.1061 182.285 43.3519 192.19 50.3228C195.996 64.3207 194.56 80.029 186.908 95.6894C183.825 101.998 179.912 107.927 175.327 113.414C171.19 111.05 166.583 109.096 161.548 107.625C164.827 104.254 167.821 100.662 170.469 96.8769C170.315 96.7228 170.16 96.5707 170.004 96.4207C167.29 100.302 164.215 103.977 160.833 107.419C159.269 106.981 157.667 106.587 156.023 106.244C155.987 106.467 155.952 106.692 155.917 106.917C157.404 107.227 158.858 107.583 160.281 107.973C145.2 123.075 124.227 133.619 102.167 137.408C102.171 137.406 102.175 137.402 102.177 137.4C101.921 137.023 101.667 136.646 101.41 136.269C100.581 136.796 99.7708 137.346 98.9708 137.906C87.5208 139.525 75.8437 139.314 64.6021 136.967C61.5271 136.325 58.5729 135.535 55.7333 134.619C59.2437 129.025 63.5333 123.844 68.4291 119.152C71.1833 119.664 73.9646 120.035 76.7625 120.258C76.7833 119.804 76.8041 119.348 76.8291 118.894C74.425 118.702 72.0333 118.402 69.6583 117.996C87.325 101.694 112.41 91.5978 137.402 91.1436C112.056 91.1228 86.6375 101.285 68.8521 117.85C68.2083 117.731 67.5646 117.614 66.9271 117.479C59.9146 116.014 53.6166 113.664 48.1229 110.608C52.4812 105.381 57.4458 100.558 62.8979 96.2019C65.3125 97.079 67.8708 97.8061 70.5604 98.3686C99.2104 104.354 132.152 89.3186 144.14 64.7874C146.844 59.2561 148.246 53.7144 148.448 48.3832C151.802 48.7769 155.137 49.3144 158.442 50.0061C158.427 49.8624 158.412 49.7186 158.398 49.5749C155.054 49.0019 151.74 48.5561 148.456 48.2207C148.629 43.0394 147.669 38.0561 145.654 33.4832C149.196 33.8936 152.719 34.4582 156.206 35.1874ZM66.7166 48.7728C66.7187 49.1644 66.7333 49.554 66.7666 49.9394C67.2 49.7978 67.6354 49.6561 68.0708 49.5186C68.0354 49.0957 68.0187 48.6686 68.0208 48.2374C67.8416 48.2832 67.6625 48.3311 67.4833 48.3769C90.9 36.3311 118.267 30.5623 144.565 33.3665C146.49 37.9394 147.39 42.9165 147.165 48.0936C120.702 45.6436 96.3354 50.7832 75.8896 60.6915C75.8833 60.6894 75.8791 60.6874 75.8729 60.6832C75.8687 60.6915 75.8625 60.6999 75.8562 60.7082C68.5396 64.2582 61.7271 68.4186 55.5 73.0582C52.0208 69.3103 49.7271 64.8311 48.8 59.9582C54.4146 55.804 60.4187 52.0624 66.7166 48.7728ZM67.5396 23.2561C60.2166 27.9019 54.1916 34.1623 50.5937 41.5249C47.5646 47.7248 46.6312 53.9394 47.5146 59.6665C44.1291 62.2186 40.8896 64.9186 37.8187 67.7624C36.1396 60.0082 37.1562 51.4457 41.3271 42.9103C42.6229 40.2561 44.1729 37.7186 45.9375 35.3061C52.6354 30.6894 59.8791 26.6436 67.5396 23.2561ZM44.3208 36.4394C42.8396 38.5728 41.5229 40.8019 40.3937 43.1144C36.1021 51.8957 35.0791 60.7019 36.8458 68.6665C32.3812 72.8915 28.2833 77.4186 24.6271 82.2123C23.0541 76.7269 22.5479 70.8894 23.2041 64.879C23.9604 63.9811 24.7312 63.0936 25.5166 62.2165C25.4812 62.0769 25.4479 61.9374 25.4125 61.7999C24.6875 62.6082 23.975 63.429 23.275 64.2561C23.7604 60.2811 24.7583 56.2374 26.2937 52.1749C31.6604 46.4207 37.7125 41.1478 44.3208 36.4394ZM25.25 53.3103C23.7854 57.3457 22.8479 61.3582 22.4021 65.2999C21.7375 66.104 21.0833 66.9144 20.4458 67.7332C20.4791 67.8728 20.5125 68.0144 20.5479 68.154C21.1333 67.4019 21.7312 66.6603 22.3396 65.9207C21.7375 71.9186 22.2791 77.7478 23.8708 83.2228C20.5208 87.729 17.5562 92.4644 15.0354 97.4082C13.2166 92.0582 12.2646 86.3978 12.2541 80.5499C13.4416 78.4561 14.7062 76.3998 16.0479 74.3853C16.0146 74.2436 15.9812 74.104 15.9479 73.9623C14.6458 75.9165 13.4166 77.9123 12.2604 79.9436C12.2916 76.3686 12.6729 72.7269 13.4229 69.0478C16.8166 63.4978 20.7833 58.2332 25.25 53.3103ZM13.0708 69.6269C11.0958 79.5332 11.7646 89.1582 14.7646 97.9457C14.6146 98.2436 14.4604 98.5415 14.3125 98.8415C12.6458 102.25 11.2437 105.662 10.0833 109.06C8.12289 103.762 6.94789 98.1124 6.67706 92.1769C7.27081 90.6728 7.91039 89.1686 8.60206 87.6623C8.57081 87.5186 8.53747 87.3769 8.50622 87.2332C7.84164 88.6769 7.22914 90.1186 6.65414 91.5603C6.53331 88.1353 6.71247 84.6165 7.21039 81.0165C8.89789 77.1061 10.8583 73.304 13.0708 69.6269ZM0.13539 110.587C0.699973 100.939 2.87706 91.6603 6.42081 82.9082C6.06039 86.2644 5.97497 89.579 6.15831 92.8353C6.00206 93.2457 5.84581 93.654 5.69789 94.0623C5.72914 94.2061 5.76039 94.3519 5.79164 94.4957C5.92081 94.1436 6.05622 93.7915 6.18747 93.4394C6.56872 99.1749 7.78539 104.721 9.76664 109.979C8.66664 113.325 7.81456 116.658 7.18539 119.967C7.03539 119.596 6.88747 119.225 6.74372 118.852C6.65206 119.171 6.56247 119.492 6.47497 119.812C6.63747 120.235 6.80414 120.656 6.97706 121.075C5.96456 126.887 5.67289 132.614 6.05831 138.185C2.14164 129.639 0.102057 120.314 0.13539 110.587ZM14.9062 166.998C10.2062 158.654 7.35831 149.45 6.57914 139.758C8.74997 144.275 11.4479 148.564 14.6437 152.575C15.0396 156.21 15.7479 159.814 16.7875 163.362C16.4312 162.937 16.0833 162.508 15.7396 162.077C15.7708 162.233 15.8041 162.389 15.8375 162.544C16.2 162.998 16.5687 163.446 16.9416 163.894C18.5458 169.196 20.8958 174.369 24.0354 179.333C20.4979 175.502 17.4479 171.371 14.9062 166.998ZM24.3062 179.619C21.2416 174.777 18.8521 169.602 17.1854 164.177C18.1271 165.294 19.1083 166.387 20.1271 167.456C20.0937 167.3 20.0583 167.146 20.025 166.987C18.9833 165.898 17.9854 164.779 17.0229 163.639C15.9729 160.112 15.2271 156.481 14.8 152.771C17.2375 155.806 19.9583 158.681 22.9541 161.364C23.4646 165.054 24.3104 168.654 25.4708 172.142C25.2541 171.954 25.0333 171.769 24.8187 171.579C24.8521 171.737 24.8875 171.894 24.9229 172.052C25.1604 172.26 25.4062 172.469 25.6479 172.675C27.5021 178.071 30.1271 183.189 33.4562 187.935C30.1229 185.362 27.0708 182.579 24.3062 179.619ZM35.0875 189.602C37.1458 191.131 39.3021 192.583 41.5583 193.952C44.4812 197.648 47.8812 201.071 51.7271 204.171C49.1937 202.789 46.6916 201.281 44.2354 199.631C40.7854 196.542 37.7291 193.185 35.0875 189.602ZM58.0687 209.371C57.9771 209.321 57.8854 209.271 57.7958 209.221C57.6437 209.137 57.4937 209.054 57.3416 208.971C53.4333 206.769 49.8291 204.302 46.5416 201.608C48.8187 203.064 51.2062 204.431 53.7 205.7C57.3437 208.427 61.3541 210.873 65.7104 212.998C63.0541 211.894 60.5062 210.683 58.0687 209.371ZM82.9791 218.289C77.0271 217.044 71.45 215.337 66.2708 213.225C61.9291 211.125 57.9312 208.702 54.2937 206.004C60.4187 209.067 67.1708 211.544 74.4937 213.344C79.1875 215.879 84.3833 217.962 90.0396 219.517C87.6729 219.185 85.3187 218.777 82.9791 218.289ZM95.3812 220.696C94.4833 220.508 93.6 220.304 92.7229 220.092C100.008 220.956 107.394 221.089 114.746 220.55C136.192 221.225 158.119 213.642 174.394 200.604C180.604 196.612 186.394 192.104 191.619 187.135C188.867 190.481 185.829 193.642 182.542 196.587C161.446 213.156 133.367 222.842 105.8 222.225C102.298 221.919 98.8187 221.414 95.3812 220.696ZM107.033 222.323C133.815 222.667 160.99 213.3 181.644 197.381C161.985 214.552 133.94 224.317 107.033 222.323ZM202.885 175.292C197.554 182.927 190.958 189.839 183.444 195.869C186.662 192.923 189.64 189.775 192.329 186.444C198.383 180.577 203.656 174.089 207.927 167.079C206.41 169.898 204.723 172.637 202.885 175.292Z" fill="white"/>
<path d="M78.5208 217.998C78.4874 217.987 78.4521 217.977 78.4187 217.967C78.4521 217.977 78.4854 217.987 78.5208 217.998Z" fill="white"/>
</svg>
